<svg width="69" height="11" viewBox="0 0 69 11" fill="none" xmlns="http://www.w3.org/2000/svg">
<path d="M0.27 0.91C0.296667 0.81 0.353333 0.72 0.44 0.64C0.526667 0.559999 0.63 0.496666 0.75 0.45C0.87 0.396666 1.00333 0.356666 1.15 0.329999C1.30333 0.303333 1.46 0.289999 1.62 0.289999C1.82 0.289999 2.01333 0.309999 2.2 0.35C2.39333 0.39 2.56 0.453333 2.7 0.54C2.84 0.62 2.94667 0.723333 3.02 0.85C3.1 0.97 3.12333 1.11333 3.09 1.28C3.06333 1.42667 3.02667 1.56 2.98 1.68C2.93333 1.8 2.89 1.92333 2.85 2.05C2.81 2.17667 2.78 2.32 2.76 2.48C2.74 2.63333 2.74333 2.81667 2.77 3.03C2.79667 3.24333 2.9 3.46667 3.08 3.7C3.26 3.92667 3.47333 4.13333 3.72 4.32C3.96667 4.5 4.22667 4.64333 4.5 4.75C4.77333 4.85 5.01667 4.88667 5.23 4.86C5.37667 4.84 5.48 4.76 5.54 4.62C5.60667 4.48 5.64667 4.31 5.66 4.11C5.67333 3.90333 5.66333 3.68333 5.63 3.45C5.59667 3.21667 5.55667 2.99667 5.51 2.79C5.46333 2.57667 5.41 2.39667 5.35 2.25C5.29 2.09667 5.24 2.00333 5.2 1.97C5.14667 1.92333 5.08333 1.9 5.01 1.9C4.92333 1.9 4.83333 1.92333 4.74 1.97C4.64667 2.01 4.55333 2.00667 4.46 1.96C4.18667 1.82667 4.11 1.52333 4.23 1.05C4.26333 0.896666 4.35333 0.77 4.5 0.67C4.65333 0.569999 4.83333 0.489999 5.04 0.43C5.24667 0.37 5.47 0.326666 5.71 0.3C5.95 0.273333 6.17333 0.26 6.38 0.26C6.59333 0.26 6.77333 0.27 6.92 0.289999C7.07333 0.309999 7.17333 0.336666 7.22 0.369999C7.28667 0.416666 7.33333 0.476666 7.36 0.549999C7.39333 0.616666 7.41333 0.716666 7.42 0.85C7.43333 0.976666 7.43333 1.14667 7.42 1.36C7.41333 1.56667 7.40333 1.83667 7.39 2.17C7.37667 2.47 7.37 2.80333 7.37 3.17C7.37 3.53667 7.37333 3.91333 7.38 4.3C7.38667 4.68667 7.39667 5.07333 7.41 5.46C7.43 5.84667 7.44667 6.21667 7.46 6.57C7.47333 6.91667 7.48667 7.23333 7.5 7.52C7.52 7.80667 7.53667 8.04 7.55 8.22C7.57 8.52 7.57667 8.77667 7.57 8.99C7.56333 9.20333 7.54 9.38667 7.5 9.54C7.46 9.69333 7.39667 9.81667 7.31 9.91C7.23 10.0033 7.12333 10.08 6.99 10.14C6.87667 10.1867 6.70667 10.21 6.48 10.21C6.32 10.21 6.14333 10.1933 5.95 10.16C5.76333 10.1333 5.58333 10.09 5.41 10.03C5.24333 9.97667 5.09333 9.91 4.96 9.83C4.83333 9.74333 4.75 9.64333 4.71 9.53C4.65 9.37 4.65333 9.20333 4.72 9.03C4.79333 8.85 4.87667 8.66333 4.97 8.47C5.06333 8.27 5.14 8.06333 5.2 7.85C5.26667 7.63667 5.26667 7.41333 5.2 7.18C5.14 6.98 5.03667 6.8 4.89 6.64C4.75 6.47333 4.57667 6.33667 4.37 6.23C4.17 6.11667 3.94333 6.03667 3.69 5.99C3.44333 5.93667 3.18333 5.92667 2.91 5.96C2.61667 5.99333 2.46333 6.12 2.45 6.34C2.43667 6.55333 2.56 6.81667 2.82 7.13C2.95333 7.29 3.07667 7.44 3.19 7.58C3.30333 7.72 3.40667 7.86333 3.5 8.01C3.59333 8.15 3.67333 8.3 3.74 8.46C3.81333 8.61333 3.87 8.78667 3.91 8.98C3.95667 9.21333 3.95333 9.4 3.9 9.54C3.85333 9.68 3.77333 9.79 3.66 9.87C3.55333 9.95 3.42333 10.0067 3.27 10.04C3.11667 10.08 2.95667 10.11 2.79 10.13C2.70333 10.1433 2.61333 10.1533 2.52 10.16C2.42667 10.1667 2.33 10.17 2.23 10.17C2.05667 10.17 1.88333 10.1567 1.71 10.13C1.53667 10.1033 1.37333 10.0567 1.22 9.99C1.06667 9.91667 0.93 9.82333 0.81 9.71C0.696667 9.59667 0.613333 9.45 0.56 9.27C0.52 9.13667 0.493333 8.93667 0.48 8.67C0.466667 8.39667 0.46 8.08667 0.46 7.74C0.466667 7.38667 0.476667 7.01333 0.49 6.62C0.51 6.22 0.526667 5.83333 0.54 5.46C0.553333 5.08667 0.563333 4.74 0.57 4.42C0.576667 4.09333 0.573333 3.82667 0.56 3.62C0.54 3.25333 0.503333 2.94667 0.45 2.7C0.396667 2.45333 0.346667 2.23333 0.3 2.04C0.253333 1.84667 0.22 1.66333 0.2 1.49C0.186667 1.31667 0.21 1.12333 0.27 0.91ZM8.8432 6.1C8.90987 5.89333 8.97654 5.67 9.0432 5.43C9.10987 5.18333 9.16987 4.93667 9.2232 4.69C9.2832 4.43667 9.33654 4.19 9.3832 3.95C9.42987 3.70333 9.46654 3.47 9.4932 3.25C9.5132 3.07667 9.62654 2.95333 9.8332 2.88C10.0399 2.8 10.2765 2.76 10.5432 2.76C10.7165 2.76 10.8899 2.77667 11.0632 2.81C11.2432 2.84333 11.4032 2.89333 11.5432 2.96C11.6899 3.02 11.8065 3.1 11.8932 3.2C11.9865 3.29333 12.0332 3.4 12.0332 3.52C12.0332 3.6 12.0565 3.77333 12.1032 4.04C12.1565 4.30667 12.2232 4.62667 12.3032 5C12.3832 5.36667 12.4732 5.76667 12.5732 6.2C12.6732 6.62667 12.7732 7.04667 12.8732 7.46C12.9732 7.87333 13.0665 8.25667 13.1532 8.61C13.2399 8.95667 13.3132 9.23333 13.3732 9.44C13.4065 9.57333 13.4065 9.68333 13.3732 9.77C13.3399 9.85667 13.2799 9.92667 13.1932 9.98C13.1132 10.0333 13.0099 10.07 12.8832 10.09C12.7632 10.1167 12.6299 10.13 12.4832 10.13C12.3499 10.13 12.2099 10.12 12.0632 10.1C11.9232 10.0867 11.7865 10.07 11.6532 10.05C11.4399 10.0167 11.2565 9.94333 11.1032 9.83C10.9565 9.71667 10.8432 9.59 10.7632 9.45C10.6832 9.31 10.6399 9.17333 10.6332 9.04C10.6265 8.9 10.6632 8.79667 10.7432 8.73C10.7765 8.71 10.8099 8.7 10.8432 8.7C10.9032 8.7 10.9732 8.72333 11.0532 8.77C11.1399 8.81667 11.2265 8.86667 11.3132 8.92C11.3999 8.97333 11.4832 9.02333 11.5632 9.07C11.6432 9.11667 11.7132 9.14 11.7732 9.14C11.8132 9.14 11.8432 9.13 11.8632 9.11C11.9032 9.07 11.8899 8.99333 11.8232 8.88C11.7632 8.76667 11.6699 8.63667 11.5432 8.49C11.4232 8.33667 11.2799 8.18 11.1132 8.02C10.9465 7.85333 10.7732 7.70333 10.5932 7.57C10.4199 7.43 10.2499 7.31667 10.0832 7.23C9.9232 7.13667 9.78654 7.09 9.6732 7.09C9.59987 7.09 9.53987 7.11333 9.4932 7.16C9.43987 7.21333 9.41987 7.3 9.4332 7.42C9.4532 7.54 9.4932 7.68 9.5532 7.84C9.6132 7.99333 9.68654 8.15667 9.7732 8.33C9.85987 8.50333 9.9432 8.66667 10.0232 8.82C10.1032 8.97333 10.1732 9.11 10.2332 9.23C10.2932 9.34333 10.3265 9.42333 10.3332 9.47C10.3465 9.57 10.3365 9.66667 10.3032 9.76C10.2765 9.84667 10.2299 9.92333 10.1632 9.99C10.1032 10.05 10.0199 10.0933 9.9132 10.12C9.80654 10.1533 9.67654 10.1633 9.5232 10.15C9.37654 10.1367 9.21987 10.1267 9.0532 10.12C8.88654 10.1133 8.72987 10.0933 8.5832 10.06C8.4432 10.0333 8.31987 9.98333 8.2132 9.91C8.10654 9.83 8.03654 9.71 8.0032 9.55C7.96987 9.39 7.97987 9.17 8.0332 8.89C8.08654 8.60333 8.15654 8.29667 8.2432 7.97C8.33654 7.64333 8.43654 7.31333 8.5432 6.98C8.65654 6.64667 8.75654 6.35333 8.8432 6.1ZM11.4432 6.86C11.5032 6.8 11.5299 6.70333 11.5232 6.57C11.5232 6.43 11.4999 6.27667 11.4532 6.11C11.4132 5.94333 11.3532 5.77333 11.2732 5.6C11.1932 5.42 11.1065 5.25667 11.0132 5.11C10.9265 4.96333 10.8332 4.84333 10.7332 4.75C10.6332 4.65667 10.5432 4.61 10.4632 4.61C10.4299 4.61 10.3965 4.62 10.3632 4.64C10.2432 4.72667 10.1732 4.84333 10.1532 4.99C10.1332 5.13 10.1465 5.28333 10.1932 5.45C10.2399 5.61667 10.3132 5.78667 10.4132 5.96C10.5132 6.13333 10.6199 6.29 10.7332 6.43C10.8465 6.57 10.9565 6.68333 11.0632 6.77C11.1765 6.85667 11.2732 6.9 11.3532 6.9C11.3865 6.9 11.4165 6.88667 11.4432 6.86ZM13.8235 3.29C13.8302 3.19667 13.8602 3.12 13.9135 3.06C13.9668 3 14.0302 2.95333 14.1035 2.92C14.1835 2.88667 14.2668 2.86333 14.3535 2.85C14.4402 2.83 14.5202 2.82 14.5935 2.82C14.7268 2.82 14.8568 2.83667 14.9835 2.87C15.1168 2.89667 15.2368 2.93667 15.3435 2.99C15.4568 3.04333 15.5468 3.11 15.6135 3.19C15.6802 3.26333 15.7135 3.34667 15.7135 3.44C15.7135 3.64 15.7068 3.83667 15.6935 4.03C15.6868 4.21667 15.6702 4.38333 15.6435 4.53C15.6168 4.67667 15.5768 4.79 15.5235 4.87C15.4702 4.95 15.4035 4.98 15.3235 4.96C15.2502 4.94 15.1768 4.93 15.1035 4.93C15.0368 4.92333 14.9902 4.86 14.9635 4.74C14.9502 4.68 14.9502 4.61 14.9635 4.53C14.9835 4.44333 14.9968 4.36 15.0035 4.28C15.0168 4.19333 15.0168 4.11667 15.0035 4.05C14.9902 3.98333 14.9468 3.93667 14.8735 3.91C14.8268 3.89667 14.7702 3.90667 14.7035 3.94C14.6368 3.97333 14.5768 4.03 14.5235 4.11C14.4768 4.18333 14.4468 4.27333 14.4335 4.38C14.4268 4.48667 14.4568 4.60667 14.5235 4.74C14.5502 4.79333 14.6202 4.85 14.7335 4.91C14.8468 4.96333 14.9635 5.03 15.0835 5.11C15.2102 5.19 15.3235 5.28667 15.4235 5.4C15.5302 5.51333 15.5868 5.65 15.5935 5.81C15.6002 5.91 15.6035 6.06 15.6035 6.26C15.6035 6.46 15.6035 6.68667 15.6035 6.94C15.6102 7.18667 15.6135 7.45 15.6135 7.73C15.6202 8.00333 15.6235 8.27 15.6235 8.53C15.6235 8.78333 15.6202 9.02 15.6135 9.24C15.6135 9.46 15.6135 9.63667 15.6135 9.77C15.6135 9.87667 15.5302 9.95667 15.3635 10.01C15.1968 10.0633 15.0068 10.09 14.7935 10.09C14.6735 10.09 14.5568 10.08 14.4435 10.06C14.3302 10.0467 14.2268 10.0233 14.1335 9.99C14.0402 9.95 13.9635 9.90333 13.9035 9.85C13.8435 9.79667 13.8135 9.73667 13.8135 9.67C13.8135 9.59 13.8135 9.44333 13.8135 9.23C13.8202 9.01 13.8235 8.74667 13.8235 8.44C13.8302 8.13333 13.8368 7.79333 13.8435 7.42C13.8502 7.04667 13.8535 6.67 13.8535 6.29C13.8535 5.95 13.8502 5.61333 13.8435 5.28C13.8435 4.94667 13.8402 4.64333 13.8335 4.37C13.8268 4.09667 13.8202 3.86667 13.8135 3.68C13.8135 3.48667 13.8168 3.35667 13.8235 3.29ZM16.128 3.29C16.1346 3.19667 16.1613 3.12667 16.208 3.08C16.2546 3.02667 16.308 2.98667 16.368 2.96C16.428 2.93333 16.4913 2.91667 16.558 2.91C16.6313 2.89667 16.6913 2.88667 16.738 2.88C16.7713 2.87333 16.888 2.87333 17.088 2.88C17.2946 2.88 17.5413 2.88333 17.828 2.89C18.1146 2.89 18.4213 2.89333 18.748 2.9C19.0813 2.90667 19.3946 2.91333 19.688 2.92C19.988 2.92667 20.248 2.93333 20.468 2.94C20.6946 2.94 20.838 2.94 20.898 2.94C21.0913 2.94 21.2246 2.98333 21.298 3.07C21.3713 3.15667 21.4013 3.33 21.388 3.59C21.388 3.70333 21.398 3.84 21.418 4C21.4446 4.16 21.4613 4.33 21.468 4.51C21.4813 4.69 21.4746 4.87333 21.448 5.06C21.4213 5.24 21.358 5.40667 21.258 5.56C21.2246 5.62 21.178 5.66333 21.118 5.69C21.058 5.71 20.9946 5.72 20.928 5.72C20.828 5.72 20.7246 5.7 20.618 5.66C20.5113 5.62 20.4246 5.58 20.358 5.54C20.3046 5.50667 20.2446 5.46 20.178 5.4C20.118 5.34 20.0613 5.27333 20.008 5.2C19.9613 5.12 19.928 5.04333 19.908 4.97C19.888 4.89 19.898 4.81667 19.938 4.75C19.9713 4.70333 20.0113 4.67667 20.058 4.67C20.1046 4.66333 20.1546 4.66 20.208 4.66C20.2946 4.66 20.348 4.64667 20.368 4.62C20.3813 4.59333 20.378 4.53 20.358 4.43C20.3446 4.32333 20.3146 4.21667 20.268 4.11C20.2213 4.00333 20.158 3.91333 20.078 3.84C20.0046 3.76 19.9146 3.73667 19.808 3.77C19.7213 3.79667 19.658 3.92333 19.618 4.15C19.578 4.37 19.5546 4.65 19.548 4.99C19.548 5.32333 19.5613 5.69 19.588 6.09C19.6146 6.48333 19.6446 6.86333 19.678 7.23C19.7113 7.59667 19.7446 7.92667 19.778 8.22C19.8113 8.50667 19.838 8.71 19.858 8.83C19.8846 9.01 19.9013 9.16333 19.908 9.29C19.9146 9.41 19.9046 9.51 19.878 9.59C19.858 9.67 19.8213 9.73667 19.768 9.79C19.7213 9.84333 19.6513 9.89333 19.558 9.94C19.4846 9.97333 19.3813 10 19.248 10.02C19.1146 10.04 18.968 10.05 18.808 10.05C18.688 10.05 18.568 10.0433 18.448 10.03C18.328 10.0233 18.218 10.01 18.118 9.99C18.018 9.96333 17.9313 9.93667 17.858 9.91C17.7846 9.87667 17.7346 9.84 17.708 9.8C17.628 9.66667 17.5946 9.51 17.608 9.33C17.628 9.15 17.6513 8.92333 17.678 8.65C17.6913 8.53667 17.7113 8.34 17.738 8.06C17.7646 7.78 17.7946 7.46333 17.828 7.11C17.8613 6.75 17.8913 6.37667 17.918 5.99C17.9446 5.60333 17.9613 5.25 17.968 4.93C17.9746 4.61 17.968 4.34667 17.948 4.14C17.928 3.93333 17.8846 3.83 17.818 3.83C17.7446 3.83 17.6646 3.87667 17.578 3.97C17.4913 4.05667 17.4146 4.15667 17.348 4.27C17.2813 4.38333 17.2313 4.49 17.198 4.59C17.1646 4.69 17.1646 4.75 17.198 4.77C17.2313 4.79 17.2746 4.8 17.328 4.8C17.3813 4.79333 17.4346 4.79 17.488 4.79C17.5413 4.79 17.5846 4.79333 17.618 4.8C17.658 4.80667 17.6813 4.82667 17.688 4.86C17.7013 4.92 17.7046 5 17.698 5.1C17.698 5.19333 17.6746 5.29 17.628 5.39C17.5813 5.49 17.5046 5.58 17.398 5.66C17.298 5.74 17.1546 5.79667 16.968 5.83C16.8146 5.85 16.6846 5.84667 16.578 5.82C16.4713 5.79333 16.3846 5.75 16.318 5.69C16.2513 5.62333 16.2013 5.54333 16.168 5.45C16.1413 5.35667 16.128 5.26 16.128 5.16C16.128 5.05333 16.1246 4.91333 16.118 4.74C16.118 4.56667 16.118 4.38667 16.118 4.2C16.118 4.01333 16.118 3.83667 16.118 3.67C16.118 3.50333 16.1213 3.37667 16.128 3.29ZM21.9197 3.46C21.9464 3.35333 21.983 3.27 22.0297 3.21C22.0764 3.15 22.1264 3.10333 22.1797 3.07C22.233 3.03 22.293 3.00333 22.3597 2.99C22.4264 2.97 22.493 2.95 22.5597 2.93C22.7064 2.88333 22.9364 2.85 23.2497 2.83C23.563 2.81 23.9064 2.8 24.2797 2.8C24.5197 2.8 24.763 2.80333 25.0097 2.81C25.2564 2.81667 25.4864 2.82667 25.6997 2.84C25.913 2.85333 26.0997 2.86667 26.2597 2.88C26.4264 2.89333 26.553 2.91 26.6397 2.93C26.7197 2.94333 26.7964 2.96 26.8697 2.98C26.9497 3 27.013 3.06 27.0597 3.16C27.113 3.26 27.1464 3.41667 27.1597 3.63C27.173 3.84333 27.1597 4.15 27.1197 4.55C27.0997 4.77 27.093 4.98667 27.0997 5.2C27.113 5.40667 27.1164 5.59333 27.1097 5.76C27.1097 5.92667 27.0864 6.06667 27.0397 6.18C26.9997 6.29333 26.9164 6.36 26.7897 6.38C26.4764 6.43333 26.1997 6.41 25.9597 6.31C25.7197 6.21 25.523 6.08333 25.3697 5.93C25.2164 5.77667 25.1097 5.62 25.0497 5.46C24.9964 5.29333 24.9997 5.17333 25.0597 5.1C25.0997 5.06 25.143 5.04 25.1897 5.04C25.2497 5.04 25.313 5.06 25.3797 5.1C25.4464 5.14 25.5097 5.18333 25.5697 5.23C25.6364 5.27 25.693 5.30333 25.7397 5.33C25.7864 5.35667 25.8197 5.35333 25.8397 5.32C25.893 5.22667 25.8797 5.12333 25.7997 5.01C25.7197 4.89667 25.603 4.78667 25.4497 4.68C25.2964 4.57333 25.1164 4.48667 24.9097 4.42C24.703 4.34667 24.4997 4.31 24.2997 4.31C24.1464 4.31 23.9997 4.33667 23.8597 4.39C23.7264 4.43667 23.6064 4.52 23.4997 4.64C23.453 4.69333 23.443 4.76667 23.4697 4.86C23.503 4.95333 23.5497 5.04667 23.6097 5.14C23.6764 5.22667 23.743 5.30333 23.8097 5.37C23.883 5.43 23.9397 5.46 23.9797 5.46C24.0197 5.46 24.053 5.44667 24.0797 5.42C24.1064 5.38667 24.1297 5.35333 24.1497 5.32C24.1764 5.28667 24.203 5.25333 24.2297 5.22C24.2564 5.18667 24.2897 5.17 24.3297 5.17C24.4297 5.16333 24.5164 5.21333 24.5897 5.32C24.6697 5.42 24.733 5.54667 24.7797 5.7C24.833 5.85333 24.8664 6.02 24.8797 6.2C24.8997 6.38 24.903 6.54667 24.8897 6.7C24.8764 6.85333 24.8464 6.98 24.7997 7.08C24.753 7.18 24.6864 7.23 24.5997 7.23C24.5197 7.23 24.4497 7.20667 24.3897 7.16C24.3364 7.11333 24.283 7.06333 24.2297 7.01C24.183 6.95 24.1364 6.89667 24.0897 6.85C24.043 6.80333 23.9897 6.78 23.9297 6.78C23.8964 6.78 23.8597 6.79 23.8197 6.81C23.7397 6.85667 23.6997 6.95 23.6997 7.09C23.6997 7.22333 23.7264 7.38333 23.7797 7.57C23.8397 7.75 23.9197 7.94 24.0197 8.14C24.1264 8.34 24.243 8.52333 24.3697 8.69C24.4964 8.85667 24.6264 8.99667 24.7597 9.11C24.8997 9.22333 25.033 9.28333 25.1597 9.29C25.353 9.29667 25.503 9.23333 25.6097 9.1C25.723 8.96667 25.7997 8.82 25.8397 8.66C25.8797 8.5 25.8864 8.35333 25.8597 8.22C25.8397 8.08667 25.7964 8.02 25.7297 8.02C25.6497 8.02 25.5897 8.03 25.5497 8.05C25.5164 8.07 25.4864 8.09333 25.4597 8.12C25.4397 8.14667 25.413 8.16667 25.3797 8.18C25.3464 8.19333 25.293 8.19667 25.2197 8.19C25.133 8.17667 25.0597 8.12 24.9997 8.02C24.9397 7.92 24.9097 7.80667 24.9097 7.68C24.9097 7.54667 24.943 7.41667 25.0097 7.29C25.0764 7.16333 25.1897 7.07 25.3497 7.01C25.463 6.96333 25.5897 6.93 25.7297 6.91C25.8697 6.88333 26.0097 6.87 26.1497 6.87C26.3164 6.87 26.4697 6.89 26.6097 6.93C26.7497 6.97 26.8497 7.03667 26.9097 7.13C26.9697 7.23667 27.0164 7.39667 27.0497 7.61C27.0897 7.81667 27.1164 8.04 27.1297 8.28C27.1497 8.52 27.163 8.76 27.1697 9C27.183 9.23333 27.1964 9.43 27.2097 9.59C27.223 9.75 27.173 9.87 27.0597 9.95C26.9464 10.03 26.7864 10.0733 26.5797 10.08C26.4997 10.08 26.3764 10.0833 26.2097 10.09C26.043 10.0967 25.8497 10.1 25.6297 10.1C25.4164 10.1067 25.1864 10.11 24.9397 10.11C24.693 10.1167 24.4464 10.12 24.1997 10.12C23.8397 10.12 23.5064 10.1133 23.1997 10.1C22.893 10.0933 22.6697 10.08 22.5297 10.06C22.3764 10.0333 22.263 9.98333 22.1897 9.91C22.1164 9.83667 22.0664 9.75333 22.0397 9.66C22.013 9.56 21.9997 9.46 21.9997 9.36C22.0064 9.25333 22.013 9.16 22.0197 9.08C22.0197 9.04 22.0164 8.93333 22.0097 8.76C22.0097 8.58667 22.003 8.37333 21.9897 8.12C21.983 7.86 21.973 7.57333 21.9597 7.26C21.953 6.94667 21.943 6.62667 21.9297 6.3C21.923 5.97333 21.913 5.65333 21.8997 5.34C21.893 5.02 21.8897 4.73 21.8897 4.47C21.8897 4.21 21.8897 3.99 21.8897 3.81C21.8964 3.63 21.9064 3.51333 21.9197 3.46ZM28.1119 2.91C28.2252 2.87 28.3985 2.85 28.6319 2.85C28.8385 2.85 29.0652 2.87 29.3119 2.91C29.5585 2.94333 29.7785 3.00667 29.9719 3.1C30.0452 3.13333 30.0952 3.19333 30.1219 3.28C30.1552 3.36 30.1685 3.44667 30.1619 3.54C30.1552 3.62667 30.1352 3.70667 30.1019 3.78C30.0752 3.85333 30.0385 3.89 29.9919 3.89C29.8852 3.89667 29.7919 3.87333 29.7119 3.82C29.6319 3.76 29.5485 3.72667 29.4619 3.72C29.4285 3.72 29.4119 3.77333 29.4119 3.88C29.4185 3.98667 29.4385 4.12333 29.4719 4.29C29.5119 4.45667 29.5619 4.63667 29.6219 4.83C29.6819 5.01667 29.7452 5.19 29.8119 5.35C29.8852 5.51 29.9585 5.64333 30.0319 5.75C30.1052 5.85667 30.1752 5.90667 30.2419 5.9C30.2752 5.89333 30.2985 5.83667 30.3119 5.73C30.3319 5.62333 30.3452 5.48667 30.3519 5.32C30.3585 5.14667 30.3619 4.95667 30.3619 4.75C30.3619 4.54333 30.3619 4.34333 30.3619 4.15C30.3619 3.95 30.3652 3.77 30.3719 3.61C30.3852 3.44333 30.4019 3.32 30.4219 3.24C30.4685 3.09333 30.5985 2.98667 30.8119 2.92C31.0252 2.85333 31.2619 2.82 31.5219 2.82C31.6619 2.82 31.8019 2.83 31.9419 2.85C32.0885 2.86333 32.2185 2.89 32.3319 2.93C32.4519 2.96333 32.5519 3.00667 32.6319 3.06C32.7119 3.10667 32.7652 3.16 32.7919 3.22C32.8452 3.34 32.8719 3.48667 32.8719 3.66C32.8719 3.82667 32.8519 3.98667 32.8119 4.14C32.7785 4.29333 32.7252 4.42333 32.6519 4.53C32.5785 4.63667 32.4919 4.68 32.3919 4.66C32.3385 4.64667 32.3019 4.61333 32.2819 4.56C32.2685 4.5 32.2452 4.47333 32.2119 4.48C32.1519 4.49333 32.0685 4.58667 31.9619 4.76C31.8619 4.92667 31.7619 5.13 31.6619 5.37C31.5685 5.61 31.4852 5.86667 31.4119 6.14C31.3452 6.40667 31.3152 6.64667 31.3219 6.86C31.3219 6.94 31.3785 7.06 31.4919 7.22C31.6119 7.38 31.7519 7.55667 31.9119 7.75C32.0719 7.94333 32.2319 8.14667 32.3919 8.36C32.5585 8.57333 32.6852 8.77333 32.7719 8.96C32.8519 9.12667 32.9019 9.28333 32.9219 9.43C32.9419 9.57 32.9185 9.69333 32.8519 9.8C32.7919 9.9 32.6819 9.97333 32.5219 10.02C32.3619 10.0733 32.1385 10.0933 31.8519 10.08C31.2852 10.0467 30.8752 9.95667 30.6219 9.81C30.3752 9.66333 30.2652 9.50333 30.2919 9.33C30.3052 9.25667 30.3319 9.20667 30.3719 9.18C30.4119 9.15333 30.4585 9.14 30.5119 9.14C30.5852 9.14 30.6652 9.15333 30.7519 9.18C30.8385 9.20667 30.9185 9.22333 30.9919 9.23C31.0319 9.23 31.0219 9.18 30.9619 9.08C30.9085 8.97333 30.8219 8.84333 30.7019 8.69C30.5885 8.53667 30.4552 8.37 30.3019 8.19C30.1485 8.00333 29.9919 7.83333 29.8319 7.68C29.6785 7.52 29.5319 7.39 29.3919 7.29C29.2585 7.18333 29.1519 7.13 29.0719 7.13C29.0319 7.13 29.0019 7.14667 28.9819 7.18C28.9419 7.25333 28.9552 7.38333 29.0219 7.57C29.0885 7.75 29.1752 7.95333 29.2819 8.18C29.3952 8.4 29.5085 8.62667 29.6219 8.86C29.7419 9.08667 29.8319 9.29 29.8919 9.47C29.9452 9.61667 29.9452 9.73333 29.8919 9.82C29.8452 9.9 29.7685 9.96 29.6619 10C29.5619 10.04 29.4419 10.0633 29.3019 10.07C29.1685 10.0833 29.0385 10.09 28.9119 10.09C28.7519 10.09 28.5952 10.09 28.4419 10.09C28.2952 10.09 28.1619 10.0567 28.0419 9.99C27.9219 9.92333 27.8219 9.81 27.7419 9.65C27.6685 9.49 27.6319 9.25 27.6319 8.93C27.6319 8.72333 27.6452 8.46 27.6719 8.14C27.7052 7.82 27.7352 7.46 27.7619 7.06C27.7885 6.66 27.8019 6.23 27.8019 5.77C27.8019 5.30333 27.7719 4.82667 27.7119 4.34C27.6852 4.12667 27.6652 3.94 27.6519 3.78C27.6452 3.62 27.6552 3.48333 27.6819 3.37C27.7085 3.25667 27.7552 3.16333 27.8219 3.09C27.8885 3.01667 27.9852 2.95667 28.1119 2.91ZM33.3848 3.95C33.3514 3.75 33.3348 3.59 33.3348 3.47C33.3414 3.34333 33.3648 3.24667 33.4048 3.18C33.4514 3.10667 33.5148 3.05667 33.5948 3.03C33.6814 3.00333 33.7848 2.98667 33.9048 2.98C34.0248 2.97333 34.1814 2.97333 34.3748 2.98C34.5748 2.98 34.7714 2.99667 34.9648 3.03C35.1648 3.06333 35.3448 3.12 35.5048 3.2C35.6714 3.28 35.7781 3.39667 35.8248 3.55C35.8714 3.69667 35.8881 3.83667 35.8748 3.97C35.8614 4.09667 35.8281 4.21 35.7748 4.31C35.7214 4.41 35.6514 4.49 35.5648 4.55C35.4848 4.60333 35.3981 4.63 35.3048 4.63C35.1981 4.63 35.0914 4.58667 34.9848 4.5C34.9448 4.46667 34.9281 4.42 34.9348 4.36C34.9481 4.3 34.9581 4.24 34.9648 4.18C34.9781 4.12 34.9748 4.07 34.9548 4.03C34.9414 3.98333 34.8881 3.96 34.7948 3.96C34.6614 3.96 34.6014 4.08 34.6148 4.32C34.6348 4.56 34.7014 4.91667 34.8148 5.39C34.8548 5.55667 34.9048 5.75333 34.9648 5.98C35.0248 6.20667 35.0914 6.44 35.1648 6.68C35.2448 6.92 35.3314 7.15667 35.4248 7.39C35.5181 7.61667 35.6214 7.82 35.7348 8C35.8481 8.18 35.9681 8.32333 36.0948 8.43C36.2214 8.53667 36.3581 8.58667 36.5048 8.58C36.6048 8.57333 36.6848 8.51 36.7448 8.39C36.8114 8.26333 36.8581 8.10333 36.8848 7.91C36.9181 7.71667 36.9381 7.50333 36.9448 7.27C36.9581 7.03667 36.9614 6.81 36.9548 6.59C36.9481 6.36333 36.9381 6.15667 36.9248 5.97C36.9114 5.77667 36.8981 5.63 36.8848 5.53C36.8581 5.31 36.8181 5.10667 36.7648 4.92C36.7181 4.73333 36.6648 4.55667 36.6048 4.39C36.5514 4.22333 36.4948 4.06333 36.4348 3.91C36.3748 3.75667 36.3248 3.60667 36.2848 3.46C36.2448 3.30667 36.2748 3.19 36.3748 3.11C36.4748 3.02333 36.6081 2.96 36.7748 2.92C36.9414 2.88 37.1181 2.85667 37.3048 2.85C37.4981 2.83667 37.6648 2.83 37.8048 2.83C38.0848 2.83 38.2948 2.9 38.4348 3.04C38.5814 3.17333 38.6548 3.42 38.6548 3.78C38.6548 3.86 38.6481 3.96333 38.6348 4.09C38.6281 4.21 38.6181 4.35 38.6048 4.51C38.5914 4.66333 38.5781 4.83 38.5648 5.01C38.5581 5.18333 38.5548 5.36333 38.5548 5.55C38.5548 5.83 38.5581 6.10667 38.5648 6.38C38.5714 6.64667 38.5714 6.90333 38.5648 7.15C38.5648 7.39 38.5548 7.62 38.5348 7.84C38.5148 8.05333 38.4748 8.25 38.4148 8.43C38.3281 8.69 38.2048 8.92 38.0448 9.12C37.8848 9.32 37.7048 9.49 37.5048 9.63C37.3048 9.77 37.0881 9.88 36.8548 9.96C36.6281 10.0333 36.3981 10.0733 36.1648 10.08C35.8848 10.0867 35.6281 10.0667 35.3948 10.02C35.1614 9.98 34.9448 9.90333 34.7448 9.79C34.5448 9.67 34.3581 9.51333 34.1848 9.32C34.0181 9.12667 33.8581 8.88333 33.7048 8.59C33.6048 8.39 33.5281 8.16 33.4748 7.9C33.4281 7.63333 33.3981 7.35333 33.3848 7.06C33.3714 6.76 33.3681 6.45667 33.3748 6.15C33.3814 5.84333 33.3881 5.55 33.3948 5.27C33.4081 4.99 33.4148 4.73667 33.4148 4.51C33.4214 4.27667 33.4114 4.09 33.3848 3.95ZM43.0108 0.45C43.0508 0.436666 43.1308 0.426666 43.2508 0.419999C43.3708 0.406666 43.5174 0.396666 43.6908 0.39C43.8641 0.383333 44.0641 0.379999 44.2908 0.379999C44.5174 0.373333 44.7541 0.369999 45.0008 0.369999C45.4274 0.369999 45.8674 0.373333 46.3208 0.379999C46.7808 0.386666 47.2074 0.396666 47.6008 0.409999C47.9941 0.423333 48.3274 0.44 48.6008 0.459999C48.8808 0.473333 49.0508 0.49 49.1108 0.509999C49.2041 0.543333 49.2674 0.603333 49.3008 0.689999C49.3341 0.77 49.3508 0.866666 49.3508 0.979999C49.3508 1.08667 49.3408 1.20333 49.3208 1.33C49.3074 1.45 49.3008 1.57 49.3008 1.69C49.2941 1.99667 49.3041 2.31 49.3308 2.63C49.3574 2.94333 49.3674 3.23 49.3608 3.49C49.3541 3.75 49.3141 3.96667 49.2408 4.14C49.1741 4.31333 49.0374 4.41667 48.8308 4.45C48.6374 4.48333 48.4408 4.44667 48.2408 4.34C48.0408 4.23333 47.8641 4.10333 47.7108 3.95C47.5641 3.79 47.4541 3.62667 47.3808 3.46C47.3074 3.29333 47.2941 3.16667 47.3408 3.08C47.3808 3.01333 47.4174 2.97 47.4508 2.95C47.4908 2.93 47.5308 2.92 47.5708 2.92C47.6108 2.92 47.6508 2.92667 47.6908 2.94C47.7308 2.94667 47.7674 2.95 47.8008 2.95C47.8408 2.95 47.8741 2.93667 47.9008 2.91C47.9541 2.85667 47.9641 2.75333 47.9308 2.6C47.8974 2.44 47.8408 2.27667 47.7608 2.11C47.6874 1.93667 47.5974 1.78333 47.4908 1.65C47.3841 1.51667 47.2808 1.45 47.1808 1.45C47.1408 1.45 47.1041 1.46333 47.0708 1.49C47.0174 1.53 46.9741 1.7 46.9408 2C46.9141 2.3 46.8974 2.67667 46.8908 3.13C46.8841 3.57667 46.8874 4.07 46.9008 4.61C46.9141 5.15 46.9374 5.67667 46.9708 6.19C47.0041 6.70333 47.0441 7.17667 47.0908 7.61C47.1441 8.04333 47.2008 8.38 47.2608 8.62C47.3541 8.98 47.3841 9.25667 47.3508 9.45C47.3174 9.64333 47.2308 9.79 47.0908 9.89C46.9574 9.98333 46.7741 10.04 46.5408 10.06C46.3141 10.08 46.0508 10.0933 45.7508 10.1C45.4908 10.1067 45.2608 10.0933 45.0608 10.06C44.8674 10.0333 44.7074 9.97333 44.5808 9.88C44.4608 9.78 44.3774 9.64333 44.3308 9.47C44.2908 9.29 44.2941 9.05667 44.3408 8.77C44.3608 8.62333 44.3874 8.41 44.4208 8.13C44.4608 7.85 44.5008 7.53 44.5408 7.17C44.5874 6.81 44.6308 6.42333 44.6708 6.01C44.7174 5.59667 44.7574 5.18333 44.7908 4.77C44.8308 4.35667 44.8608 3.96 44.8808 3.58C44.9074 3.19333 44.9208 2.85 44.9208 2.55C44.9208 2.25 44.9074 2.00667 44.8808 1.82C44.8608 1.63333 44.8208 1.53 44.7608 1.51C44.7074 1.49 44.6374 1.50667 44.5508 1.56C44.4641 1.61333 44.3774 1.68667 44.2908 1.78C44.2041 1.87333 44.1174 1.98 44.0308 2.1C43.9508 2.21333 43.8808 2.32667 43.8208 2.44C43.7674 2.54667 43.7308 2.64333 43.7108 2.73C43.6974 2.81667 43.7108 2.87667 43.7508 2.91C43.8041 2.95667 43.8608 2.98667 43.9208 3C43.9808 3.00667 44.0374 3.01 44.0908 3.01C44.1641 3.01 44.2274 3.01 44.2808 3.01C44.3341 3.00333 44.3741 3.01667 44.4008 3.05C44.4474 3.10333 44.4608 3.19 44.4408 3.31C44.4208 3.43 44.3774 3.56667 44.3108 3.72C44.2441 3.86667 44.1608 4.01667 44.0608 4.17C43.9608 4.32333 43.8508 4.46333 43.7308 4.59C43.6108 4.71 43.4874 4.80667 43.3608 4.88C43.2341 4.94667 43.1108 4.97 42.9908 4.95C42.7908 4.91667 42.6608 4.84 42.6008 4.72C42.5474 4.59333 42.5208 4.43667 42.5208 4.25C42.5208 4.06333 42.5274 3.85667 42.5408 3.63C42.5541 3.39667 42.5308 3.15667 42.4708 2.91C42.4108 2.66333 42.3574 2.41333 42.3108 2.16C42.2641 1.90667 42.2474 1.67 42.2608 1.45C42.2808 1.22333 42.3441 1.02333 42.4508 0.85C42.5641 0.676666 42.7508 0.543333 43.0108 0.45ZM49.8205 8C49.8339 7.87333 49.8405 7.7 49.8405 7.48C49.8472 7.26 49.8472 7.01667 49.8405 6.75C49.8405 6.47667 49.8372 6.19667 49.8305 5.91C49.8305 5.62333 49.8272 5.35333 49.8205 5.1C49.8205 4.84 49.8172 4.61333 49.8105 4.42C49.8039 4.22 49.7972 4.07667 49.7905 3.99C49.7839 3.86333 49.7772 3.73667 49.7705 3.61C49.7639 3.48333 49.7739 3.36667 49.8005 3.26C49.8272 3.15333 49.8705 3.06333 49.9305 2.99C49.9972 2.91667 50.0939 2.86667 50.2205 2.84C50.3139 2.82 50.4872 2.80333 50.7405 2.79C51.0005 2.77 51.2972 2.76 51.6305 2.76C51.8705 2.76 52.1205 2.76667 52.3805 2.78C52.6405 2.79333 52.8905 2.81667 53.1305 2.85C53.3705 2.87667 53.5905 2.92 53.7905 2.98C53.9972 3.03333 54.1672 3.1 54.3005 3.18C54.5272 3.32 54.7005 3.50667 54.8205 3.74C54.9472 3.97333 55.0305 4.22 55.0705 4.48C55.1105 4.73333 55.1139 4.98333 55.0805 5.23C55.0472 5.47667 54.9872 5.68333 54.9005 5.85C54.8139 6.01667 54.7272 6.15333 54.6405 6.26C54.5605 6.36667 54.4839 6.46 54.4105 6.54C54.3439 6.61333 54.2905 6.68 54.2505 6.74C54.2105 6.79333 54.1905 6.85667 54.1905 6.93C54.1972 6.96333 54.2172 7.04 54.2505 7.16C54.2905 7.27333 54.3372 7.40667 54.3905 7.56C54.4505 7.71333 54.5139 7.88 54.5805 8.06C54.6539 8.23333 54.7205 8.4 54.7805 8.56C54.8405 8.72 54.8939 8.86333 54.9405 8.99C54.9939 9.11 55.0272 9.19667 55.0405 9.25C55.0939 9.40333 55.0739 9.54667 54.9805 9.68C54.8939 9.80667 54.7939 9.88667 54.6805 9.92C54.6205 9.93333 54.4905 9.95333 54.2905 9.98C54.0905 10.0067 53.8805 10.02 53.6605 10.02C53.4872 10.02 53.3239 10.01 53.1705 9.99C53.0239 9.96333 52.9105 9.92 52.8305 9.86C52.6572 9.73333 52.5272 9.57667 52.4405 9.39C52.3539 9.20333 52.3005 9.02333 52.2805 8.85C52.2605 8.67 52.2672 8.51667 52.3005 8.39C52.3405 8.25667 52.3972 8.18333 52.4705 8.17C52.5505 8.15667 52.6205 8.19 52.6805 8.27C52.7472 8.35 52.8039 8.44 52.8505 8.54C52.9039 8.64 52.9505 8.73333 52.9905 8.82C53.0305 8.90667 53.0672 8.95 53.1005 8.95C53.1339 8.95 53.1339 8.87 53.1005 8.71C53.0672 8.55 53.0039 8.36333 52.9105 8.15C52.8239 7.93 52.7105 7.71 52.5705 7.49C52.4305 7.26333 52.2705 7.09 52.0905 6.97C51.8172 6.78333 51.5872 6.69 51.4005 6.69C51.1339 6.69 51.0505 6.86333 51.1505 7.21C51.1905 7.35667 51.2472 7.51333 51.3205 7.68C51.3939 7.84 51.4672 8 51.5405 8.16C51.6205 8.32 51.6972 8.47333 51.7705 8.62C51.8439 8.76 51.9039 8.88 51.9505 8.98C51.9972 9.08 52.0305 9.19 52.0505 9.31C52.0705 9.42333 52.0705 9.53667 52.0505 9.65C52.0305 9.75667 51.9905 9.85333 51.9305 9.94C51.8705 10.0267 51.7839 10.0867 51.6705 10.12C51.5372 10.1533 51.3905 10.17 51.2305 10.17C51.1039 10.17 50.9739 10.16 50.8405 10.14C50.7072 10.1267 50.5805 10.1033 50.4605 10.07C50.3405 10.0367 50.2339 9.99667 50.1405 9.95C50.0472 9.90333 49.9805 9.85 49.9405 9.79C49.8805 9.69667 49.8372 9.58667 49.8105 9.46C49.7839 9.33333 49.7672 9.19333 49.7605 9.04C49.7605 8.88 49.7672 8.71333 49.7805 8.54C49.7939 8.36 49.8072 8.18 49.8205 8ZM53.3405 5.54C53.4072 5.44667 53.4205 5.33667 53.3805 5.21C53.3405 5.08333 53.2672 4.95 53.1605 4.81C53.0605 4.67 52.9339 4.53 52.7805 4.39C52.6339 4.25 52.4805 4.12667 52.3205 4.02C52.1605 3.91333 52.0005 3.82667 51.8405 3.76C51.6872 3.68667 51.5572 3.65 51.4505 3.65C51.3505 3.65 51.2772 3.68333 51.2305 3.75C51.1772 3.83 51.1639 3.93667 51.1905 4.07C51.2239 4.19667 51.2839 4.33333 51.3705 4.48C51.4572 4.62667 51.5639 4.77333 51.6905 4.92C51.8239 5.06667 51.9639 5.2 52.1105 5.32C52.2639 5.44 52.4139 5.53667 52.5605 5.61C52.7139 5.68333 52.8539 5.72 52.9805 5.72C53.1405 5.72 53.2605 5.66 53.3405 5.54ZM55.5227 3.29C55.5294 3.19667 55.5594 3.12 55.6127 3.06C55.6661 3 55.7294 2.95333 55.8027 2.92C55.8827 2.88667 55.9661 2.86333 56.0527 2.85C56.1394 2.83 56.2194 2.82 56.2927 2.82C56.4261 2.82 56.5561 2.83667 56.6827 2.87C56.8161 2.89667 56.9361 2.93667 57.0427 2.99C57.1561 3.04333 57.2461 3.11 57.3127 3.19C57.3794 3.26333 57.4127 3.34667 57.4127 3.44C57.4127 3.64 57.4061 3.83667 57.3927 4.03C57.3861 4.21667 57.3694 4.38333 57.3427 4.53C57.3161 4.67667 57.2761 4.79 57.2227 4.87C57.1694 4.95 57.1027 4.98 57.0227 4.96C56.9494 4.94 56.8761 4.93 56.8027 4.93C56.7361 4.92333 56.6894 4.86 56.6627 4.74C56.6494 4.68 56.6494 4.61 56.6627 4.53C56.6827 4.44333 56.6961 4.36 56.7027 4.28C56.7161 4.19333 56.7161 4.11667 56.7027 4.05C56.6894 3.98333 56.6461 3.93667 56.5727 3.91C56.5261 3.89667 56.4694 3.90667 56.4027 3.94C56.3361 3.97333 56.2761 4.03 56.2227 4.11C56.1761 4.18333 56.1461 4.27333 56.1327 4.38C56.1261 4.48667 56.1561 4.60667 56.2227 4.74C56.2494 4.79333 56.3194 4.85 56.4327 4.91C56.5461 4.96333 56.6627 5.03 56.7827 5.11C56.9094 5.19 57.0227 5.28667 57.1227 5.4C57.2294 5.51333 57.2861 5.65 57.2927 5.81C57.2994 5.91 57.3027 6.06 57.3027 6.26C57.3027 6.46 57.3027 6.68667 57.3027 6.94C57.3094 7.18667 57.3127 7.45 57.3127 7.73C57.3194 8.00333 57.3227 8.27 57.3227 8.53C57.3227 8.78333 57.3194 9.02 57.3127 9.24C57.3127 9.46 57.3127 9.63667 57.3127 9.77C57.3127 9.87667 57.2294 9.95667 57.0627 10.01C56.8961 10.0633 56.7061 10.09 56.4927 10.09C56.3727 10.09 56.2561 10.08 56.1427 10.06C56.0294 10.0467 55.9261 10.0233 55.8327 9.99C55.7394 9.95 55.6627 9.90333 55.6027 9.85C55.5427 9.79667 55.5127 9.73667 55.5127 9.67C55.5127 9.59 55.5127 9.44333 55.5127 9.23C55.5194 9.01 55.5227 8.74667 55.5227 8.44C55.5294 8.13333 55.5361 7.79333 55.5427 7.42C55.5494 7.04667 55.5527 6.67 55.5527 6.29C55.5527 5.95 55.5494 5.61333 55.5427 5.28C55.5427 4.94667 55.5394 4.64333 55.5327 4.37C55.5261 4.09667 55.5194 3.86667 55.5127 3.68C55.5127 3.48667 55.5161 3.35667 55.5227 3.29ZM57.9672 3.2C58.0672 3.08667 58.1805 3.00667 58.3072 2.96C58.4405 2.91333 58.5739 2.89 58.7072 2.89C58.8605 2.89 58.9972 2.92 59.1172 2.98C59.2439 3.03333 59.3239 3.10333 59.3572 3.19C59.3905 3.26333 59.3939 3.35667 59.3672 3.47C59.3405 3.57667 59.3105 3.69 59.2772 3.81C59.2439 3.93 59.2172 4.05333 59.1972 4.18C59.1839 4.30667 59.2005 4.42667 59.2472 4.54C59.2805 4.60667 59.3472 4.70333 59.4472 4.83C59.5539 4.95 59.6772 5.08 59.8172 5.22C59.9639 5.36 60.1205 5.50333 60.2872 5.65C60.4605 5.79 60.6239 5.91333 60.7772 6.02C60.9372 6.12 61.0805 6.19333 61.2072 6.24C61.3339 6.28667 61.4305 6.29 61.4972 6.25C61.5572 6.21 61.5772 6.12333 61.5572 5.99C61.5372 5.85667 61.4905 5.70333 61.4172 5.53C61.3505 5.35 61.2639 5.16333 61.1572 4.97C61.0572 4.77667 60.9539 4.60333 60.8472 4.45C60.7472 4.29 60.6505 4.16333 60.5572 4.07C60.4639 3.97 60.3905 3.93 60.3372 3.95C60.2572 3.97 60.2172 4.01333 60.2172 4.08C60.2172 4.14 60.2272 4.20667 60.2472 4.28C60.2672 4.34667 60.2839 4.41667 60.2972 4.49C60.3172 4.55667 60.3005 4.60667 60.2472 4.64C60.2005 4.67333 60.1505 4.69 60.0972 4.69C60.0239 4.69 59.9439 4.66333 59.8572 4.61C59.7772 4.55667 59.7072 4.48333 59.6472 4.39C59.5872 4.29667 59.5472 4.18333 59.5272 4.05C59.5072 3.91 59.5205 3.75667 59.5672 3.59C59.6339 3.35667 59.7839 3.16333 60.0172 3.01C60.2572 2.85667 60.5505 2.78 60.8972 2.78C61.0905 2.78 61.2939 2.81 61.5072 2.87C61.7272 2.92333 61.9539 3.01333 62.1872 3.14C62.4205 3.26 62.6072 3.43 62.7472 3.65C62.8872 3.87 62.9872 4.10333 63.0472 4.35C63.1139 4.59667 63.1405 4.83667 63.1272 5.07C63.1205 5.30333 63.0839 5.49667 63.0172 5.65C62.9505 5.80333 62.8905 5.93 62.8372 6.03C62.7839 6.13 62.7372 6.21333 62.6972 6.28C62.6639 6.34 62.6405 6.39333 62.6272 6.44C62.6139 6.48667 62.6105 6.53 62.6172 6.57C62.6305 6.61 62.6772 6.69667 62.7572 6.83C62.8372 6.95667 62.9139 7.12333 62.9872 7.33C63.0605 7.53 63.1072 7.76667 63.1272 8.04C63.1539 8.31333 63.1139 8.61667 63.0072 8.95C62.8739 9.36333 62.6872 9.65667 62.4472 9.83C62.2139 9.99667 61.9572 10.08 61.6772 10.08C61.5039 10.08 61.3305 10.0533 61.1572 10C60.9839 9.94667 60.8139 9.87333 60.6472 9.78C60.4272 9.66 60.2405 9.50333 60.0872 9.31C59.9405 9.11 59.8239 8.91333 59.7372 8.72C59.6505 8.52667 59.6005 8.35667 59.5872 8.21C59.5739 8.05667 59.5972 7.96 59.6572 7.92C59.7172 7.88667 59.7872 7.88333 59.8672 7.91C59.9472 7.93667 60.0305 7.97333 60.1172 8.02C60.2105 8.06667 60.3005 8.11333 60.3872 8.16C60.4739 8.2 60.5505 8.22 60.6172 8.22C60.7172 8.22 60.7839 8.17 60.8172 8.07C60.8572 7.96333 60.8372 7.82333 60.7572 7.65C60.6839 7.47667 60.5772 7.31 60.4372 7.15C60.3039 6.98333 60.1539 6.84333 59.9872 6.73C59.8205 6.61 59.6672 6.55 59.5272 6.55C59.4539 6.55 59.3872 6.57 59.3272 6.61C59.2072 6.69 59.1405 6.85 59.1272 7.09C59.1205 7.32333 59.1439 7.57667 59.1972 7.85C59.2505 8.11667 59.3172 8.37667 59.3972 8.63C59.4839 8.88333 59.5605 9.06667 59.6272 9.18C59.7605 9.41333 59.8072 9.62 59.7672 9.8C59.7339 9.97333 59.6005 10.0767 59.3672 10.11C59.1939 10.1367 59.0239 10.14 58.8572 10.12C58.6905 10.1 58.5405 10.0633 58.4072 10.01C58.2805 9.95667 58.1805 9.88333 58.1072 9.79C58.0339 9.69667 58.0039 9.59 58.0172 9.47C58.0372 9.31 58.0472 9.08667 58.0472 8.8C58.0539 8.51333 58.0505 8.21667 58.0372 7.91C58.0305 7.59667 58.0172 7.29667 57.9972 7.01C57.9839 6.72333 57.9705 6.49667 57.9572 6.33C57.9505 6.22333 57.9372 6.08 57.9172 5.9C57.9039 5.72 57.8872 5.52333 57.8672 5.31C57.8539 5.09667 57.8405 4.87667 57.8272 4.65C57.8205 4.42333 57.8172 4.21333 57.8172 4.02C57.8239 3.82 57.8372 3.64667 57.8572 3.5C57.8839 3.35333 57.9205 3.25333 57.9672 3.2ZM63.5798 3.46C63.6065 3.35333 63.6432 3.27 63.6898 3.21C63.7365 3.15 63.7865 3.10333 63.8398 3.07C63.8932 3.03 63.9532 3.00333 64.0198 2.99C64.0865 2.97 64.1532 2.95 64.2198 2.93C64.3665 2.88333 64.5965 2.85 64.9098 2.83C65.2232 2.81 65.5665 2.8 65.9398 2.8C66.1798 2.8 66.4232 2.80333 66.6698 2.81C66.9165 2.81667 67.1465 2.82667 67.3598 2.84C67.5732 2.85333 67.7598 2.86667 67.9198 2.88C68.0865 2.89333 68.2132 2.91 68.2998 2.93C68.3798 2.94333 68.4565 2.96 68.5298 2.98C68.6098 3 68.6732 3.06 68.7198 3.16C68.7732 3.26 68.8065 3.41667 68.8198 3.63C68.8332 3.84333 68.8198 4.15 68.7798 4.55C68.7598 4.77 68.7532 4.98667 68.7598 5.2C68.7732 5.40667 68.7765 5.59333 68.7698 5.76C68.7698 5.92667 68.7465 6.06667 68.6998 6.18C68.6598 6.29333 68.5765 6.36 68.4498 6.38C68.1365 6.43333 67.8598 6.41 67.6198 6.31C67.3798 6.21 67.1832 6.08333 67.0298 5.93C66.8765 5.77667 66.7698 5.62 66.7098 5.46C66.6565 5.29333 66.6598 5.17333 66.7198 5.1C66.7598 5.06 66.8032 5.04 66.8498 5.04C66.9098 5.04 66.9732 5.06 67.0398 5.1C67.1065 5.14 67.1698 5.18333 67.2298 5.23C67.2965 5.27 67.3532 5.30333 67.3998 5.33C67.4465 5.35667 67.4798 5.35333 67.4998 5.32C67.5532 5.22667 67.5398 5.12333 67.4598 5.01C67.3798 4.89667 67.2632 4.78667 67.1098 4.68C66.9565 4.57333 66.7765 4.48667 66.5698 4.42C66.3632 4.34667 66.1598 4.31 65.9598 4.31C65.8065 4.31 65.6598 4.33667 65.5198 4.39C65.3865 4.43667 65.2665 4.52 65.1598 4.64C65.1132 4.69333 65.1032 4.76667 65.1298 4.86C65.1632 4.95333 65.2098 5.04667 65.2698 5.14C65.3365 5.22667 65.4032 5.30333 65.4698 5.37C65.5432 5.43 65.5998 5.46 65.6398 5.46C65.6798 5.46 65.7132 5.44667 65.7398 5.42C65.7665 5.38667 65.7898 5.35333 65.8098 5.32C65.8365 5.28667 65.8632 5.25333 65.8898 5.22C65.9165 5.18667 65.9498 5.17 65.9898 5.17C66.0898 5.16333 66.1765 5.21333 66.2498 5.32C66.3298 5.42 66.3932 5.54667 66.4398 5.7C66.4932 5.85333 66.5265 6.02 66.5398 6.2C66.5598 6.38 66.5632 6.54667 66.5498 6.7C66.5365 6.85333 66.5065 6.98 66.4598 7.08C66.4132 7.18 66.3465 7.23 66.2598 7.23C66.1798 7.23 66.1098 7.20667 66.0498 7.16C65.9965 7.11333 65.9432 7.06333 65.8898 7.01C65.8432 6.95 65.7965 6.89667 65.7498 6.85C65.7032 6.80333 65.6498 6.78 65.5898 6.78C65.5565 6.78 65.5198 6.79 65.4798 6.81C65.3998 6.85667 65.3598 6.95 65.3598 7.09C65.3598 7.22333 65.3865 7.38333 65.4398 7.57C65.4998 7.75 65.5798 7.94 65.6798 8.14C65.7865 8.34 65.9032 8.52333 66.0298 8.69C66.1565 8.85667 66.2865 8.99667 66.4198 9.11C66.5598 9.22333 66.6932 9.28333 66.8198 9.29C67.0132 9.29667 67.1632 9.23333 67.2698 9.1C67.3832 8.96667 67.4598 8.82 67.4998 8.66C67.5398 8.5 67.5465 8.35333 67.5198 8.22C67.4998 8.08667 67.4565 8.02 67.3898 8.02C67.3098 8.02 67.2498 8.03 67.2098 8.05C67.1765 8.07 67.1465 8.09333 67.1198 8.12C67.0998 8.14667 67.0732 8.16667 67.0398 8.18C67.0065 8.19333 66.9532 8.19667 66.8798 8.19C66.7932 8.17667 66.7198 8.12 66.6598 8.02C66.5998 7.92 66.5698 7.80667 66.5698 7.68C66.5698 7.54667 66.6032 7.41667 66.6698 7.29C66.7365 7.16333 66.8498 7.07 67.0098 7.01C67.1232 6.96333 67.2498 6.93 67.3898 6.91C67.5298 6.88333 67.6698 6.87 67.8098 6.87C67.9765 6.87 68.1298 6.89 68.2698 6.93C68.4098 6.97 68.5098 7.03667 68.5698 7.13C68.6298 7.23667 68.6765 7.39667 68.7098 7.61C68.7498 7.81667 68.7765 8.04 68.7898 8.28C68.8098 8.52 68.8232 8.76 68.8298 9C68.8432 9.23333 68.8565 9.43 68.8698 9.59C68.8832 9.75 68.8332 9.87 68.7198 9.95C68.6065 10.03 68.4465 10.0733 68.2398 10.08C68.1598 10.08 68.0365 10.0833 67.8698 10.09C67.7032 10.0967 67.5098 10.1 67.2898 10.1C67.0765 10.1067 66.8465 10.11 66.5998 10.11C66.3532 10.1167 66.1065 10.12 65.8598 10.12C65.4998 10.12 65.1665 10.1133 64.8598 10.1C64.5532 10.0933 64.3298 10.08 64.1898 10.06C64.0365 10.0333 63.9232 9.98333 63.8498 9.91C63.7765 9.83667 63.7265 9.75333 63.6998 9.66C63.6732 9.56 63.6598 9.46 63.6598 9.36C63.6665 9.25333 63.6732 9.16 63.6798 9.08C63.6798 9.04 63.6765 8.93333 63.6698 8.76C63.6698 8.58667 63.6632 8.37333 63.6498 8.12C63.6432 7.86 63.6332 7.57333 63.6198 7.26C63.6132 6.94667 63.6032 6.62667 63.5898 6.3C63.5832 5.97333 63.5732 5.65333 63.5598 5.34C63.5532 5.02 63.5498 4.73 63.5498 4.47C63.5498 4.21 63.5498 3.99 63.5498 3.81C63.5565 3.63 63.5665 3.51333 63.5798 3.46Z" fill="white"/>
</svg>
