<svg width="512" height="512" viewBox="0 0 512 512" fill="none" xmlns="http://www.w3.org/2000/svg">
<circle cx="256" cy="256" r="251" fill="#F1C93B" stroke="black" stroke-width="10"/>
<path d="M34.728 244.824C34.8987 244.184 35.2613 243.608 35.816 243.096C36.3707 242.584 37.032 242.179 37.8 241.88C38.568 241.539 39.4213 241.283 40.36 241.112C41.3413 240.941 42.344 240.856 43.368 240.856C44.648 240.856 45.8853 240.984 47.08 241.24C48.3173 241.496 49.384 241.901 50.28 242.456C51.176 242.968 51.8587 243.629 52.328 244.44C52.84 245.208 52.9893 246.125 52.776 247.192C52.6053 248.131 52.3707 248.984 52.072 249.752C51.7733 250.52 51.496 251.309 51.24 252.12C50.984 252.931 50.792 253.848 50.664 254.872C50.536 255.853 50.5573 257.027 50.728 258.392C50.8987 259.757 51.56 261.187 52.712 262.68C53.864 264.131 55.2293 265.453 56.808 266.648C58.3867 267.8 60.0507 268.717 61.8 269.4C63.5493 270.04 65.1067 270.275 66.472 270.104C67.4107 269.976 68.072 269.464 68.456 268.568C68.8827 267.672 69.1387 266.584 69.224 265.304C69.3093 263.981 69.2453 262.573 69.032 261.08C68.8187 259.587 68.5627 258.179 68.264 256.856C67.9653 255.491 67.624 254.339 67.24 253.4C66.856 252.419 66.536 251.821 66.28 251.608C65.9387 251.309 65.5333 251.16 65.064 251.16C64.5093 251.16 63.9333 251.309 63.336 251.608C62.7387 251.864 62.1413 251.843 61.544 251.544C59.7947 250.691 59.304 248.749 60.072 245.72C60.2853 244.739 60.8613 243.928 61.8 243.288C62.7813 242.648 63.9333 242.136 65.256 241.752C66.5787 241.368 68.008 241.091 69.544 240.92C71.08 240.749 72.5093 240.664 73.832 240.664C75.1973 240.664 76.3493 240.728 77.288 240.856C78.2693 240.984 78.9093 241.155 79.208 241.368C79.6347 241.667 79.9333 242.051 80.104 242.52C80.3173 242.947 80.4453 243.587 80.488 244.44C80.5733 245.251 80.5733 246.339 80.488 247.704C80.4453 249.027 80.3813 250.755 80.296 252.888C80.2107 254.808 80.168 256.941 80.168 259.288C80.168 261.635 80.1893 264.045 80.232 266.52C80.2747 268.995 80.3387 271.469 80.424 273.944C80.552 276.419 80.6587 278.787 80.744 281.048C80.8293 283.267 80.9147 285.293 81 287.128C81.128 288.963 81.2347 290.456 81.32 291.608C81.448 293.528 81.4907 295.171 81.448 296.536C81.4053 297.901 81.256 299.075 81 300.056C80.744 301.037 80.3387 301.827 79.784 302.424C79.272 303.021 78.5893 303.512 77.736 303.896C77.0107 304.195 75.9227 304.344 74.472 304.344C73.448 304.344 72.3173 304.237 71.08 304.024C69.8853 303.853 68.7333 303.576 67.624 303.192C66.5573 302.851 65.5973 302.424 64.744 301.912C63.9333 301.357 63.4 300.717 63.144 299.992C62.76 298.968 62.7813 297.901 63.208 296.792C63.6773 295.64 64.2107 294.445 64.808 293.208C65.4053 291.928 65.896 290.605 66.28 289.24C66.7067 287.875 66.7067 286.445 66.28 284.952C65.896 283.672 65.2347 282.52 64.296 281.496C63.4 280.429 62.2907 279.555 60.968 278.872C59.688 278.147 58.2373 277.635 56.616 277.336C55.0373 276.995 53.3733 276.931 51.624 277.144C49.7467 277.357 48.7653 278.168 48.68 279.576C48.5947 280.941 49.384 282.627 51.048 284.632C51.9013 285.656 52.6907 286.616 53.416 287.512C54.1413 288.408 54.8027 289.325 55.4 290.264C55.9973 291.16 56.5093 292.12 56.936 293.144C57.4053 294.125 57.768 295.235 58.024 296.472C58.3227 297.965 58.3013 299.16 57.96 300.056C57.6613 300.952 57.1493 301.656 56.424 302.168C55.7413 302.68 54.9093 303.043 53.928 303.256C52.9467 303.512 51.9227 303.704 50.856 303.832C50.3013 303.917 49.7253 303.981 49.128 304.024C48.5307 304.067 47.912 304.088 47.272 304.088C46.1627 304.088 45.0533 304.003 43.944 303.832C42.8347 303.661 41.7893 303.363 40.808 302.936C39.8267 302.467 38.952 301.869 38.184 301.144C37.4587 300.419 36.9253 299.48 36.584 298.328C36.328 297.475 36.1573 296.195 36.072 294.488C35.9867 292.739 35.944 290.755 35.944 288.536C35.9867 286.275 36.0507 283.885 36.136 281.368C36.264 278.808 36.3707 276.333 36.456 273.944C36.5413 271.555 36.6053 269.336 36.648 267.288C36.6907 265.197 36.6693 263.491 36.584 262.168C36.456 259.821 36.2213 257.859 35.88 256.28C35.5387 254.701 35.2187 253.293 34.92 252.056C34.6213 250.819 34.408 249.645 34.28 248.536C34.1947 247.427 34.344 246.189 34.728 244.824ZM89.5965 278.04C90.0232 276.717 90.4498 275.288 90.8765 273.752C91.3032 272.173 91.6872 270.595 92.0285 269.016C92.4125 267.395 92.7538 265.816 93.0525 264.28C93.3512 262.701 93.5858 261.208 93.7565 259.8C93.8845 258.691 94.6098 257.901 95.9325 257.432C97.2552 256.92 98.7698 256.664 100.477 256.664C101.586 256.664 102.695 256.771 103.805 256.984C104.957 257.197 105.981 257.517 106.877 257.944C107.815 258.328 108.562 258.84 109.117 259.48C109.714 260.077 110.013 260.76 110.013 261.528C110.013 262.04 110.162 263.149 110.461 264.856C110.802 266.563 111.229 268.611 111.741 271C112.253 273.347 112.829 275.907 113.469 278.68C114.109 281.411 114.749 284.099 115.389 286.744C116.029 289.389 116.626 291.843 117.181 294.104C117.735 296.323 118.205 298.093 118.589 299.416C118.802 300.269 118.802 300.973 118.589 301.528C118.375 302.083 117.991 302.531 117.437 302.872C116.925 303.213 116.263 303.448 115.453 303.576C114.685 303.747 113.831 303.832 112.893 303.832C112.039 303.832 111.143 303.768 110.205 303.64C109.309 303.555 108.434 303.448 107.581 303.32C106.215 303.107 105.042 302.637 104.061 301.912C103.122 301.187 102.397 300.376 101.885 299.48C101.373 298.584 101.095 297.709 101.053 296.856C101.01 295.96 101.245 295.299 101.757 294.872C101.97 294.744 102.183 294.68 102.397 294.68C102.781 294.68 103.229 294.829 103.741 295.128C104.295 295.427 104.85 295.747 105.405 296.088C105.959 296.429 106.493 296.749 107.005 297.048C107.517 297.347 107.965 297.496 108.349 297.496C108.605 297.496 108.797 297.432 108.925 297.304C109.181 297.048 109.095 296.557 108.669 295.832C108.285 295.107 107.687 294.275 106.877 293.336C106.109 292.355 105.191 291.352 104.125 290.328C103.058 289.261 101.949 288.301 100.797 287.448C99.6872 286.552 98.5992 285.827 97.5325 285.272C96.5085 284.675 95.6338 284.376 94.9085 284.376C94.4392 284.376 94.0552 284.525 93.7565 284.824C93.4152 285.165 93.2872 285.72 93.3725 286.488C93.5005 287.256 93.7565 288.152 94.1405 289.176C94.5245 290.157 94.9938 291.203 95.5485 292.312C96.1032 293.421 96.6365 294.467 97.1485 295.448C97.6605 296.429 98.1085 297.304 98.4925 298.072C98.8765 298.797 99.0898 299.309 99.1325 299.608C99.2178 300.248 99.1538 300.867 98.9405 301.464C98.7698 302.019 98.4712 302.509 98.0445 302.936C97.6605 303.32 97.1272 303.597 96.4445 303.768C95.7618 303.981 94.9298 304.045 93.9485 303.96C93.0098 303.875 92.0072 303.811 90.9405 303.768C89.8738 303.725 88.8712 303.597 87.9325 303.384C87.0365 303.213 86.2472 302.893 85.5645 302.424C84.8818 301.912 84.4338 301.144 84.2205 300.12C84.0072 299.096 84.0712 297.688 84.4125 295.896C84.7538 294.061 85.2018 292.099 85.7565 290.008C86.3538 287.917 86.9938 285.805 87.6765 283.672C88.4018 281.539 89.0418 279.661 89.5965 278.04ZM106.237 282.904C106.621 282.52 106.791 281.901 106.749 281.048C106.749 280.152 106.599 279.171 106.301 278.104C106.045 277.037 105.661 275.949 105.149 274.84C104.637 273.688 104.082 272.643 103.485 271.704C102.93 270.765 102.333 269.997 101.693 269.4C101.053 268.803 100.477 268.504 99.9645 268.504C99.7512 268.504 99.5378 268.568 99.3245 268.696C98.5565 269.251 98.1085 269.997 97.9805 270.936C97.8525 271.832 97.9378 272.813 98.2365 273.88C98.5352 274.947 99.0045 276.035 99.6445 277.144C100.285 278.253 100.967 279.256 101.693 280.152C102.418 281.048 103.122 281.773 103.805 282.328C104.53 282.883 105.149 283.16 105.661 283.16C105.874 283.16 106.066 283.075 106.237 282.904ZM121.471 260.056C121.513 259.459 121.705 258.968 122.047 258.584C122.388 258.2 122.793 257.901 123.263 257.688C123.775 257.475 124.308 257.325 124.863 257.24C125.417 257.112 125.929 257.048 126.399 257.048C127.252 257.048 128.084 257.155 128.895 257.368C129.748 257.539 130.516 257.795 131.199 258.136C131.924 258.477 132.5 258.904 132.927 259.416C133.353 259.885 133.567 260.419 133.567 261.016C133.567 262.296 133.524 263.555 133.439 264.792C133.396 265.987 133.289 267.053 133.119 267.992C132.948 268.931 132.692 269.656 132.351 270.168C132.009 270.68 131.583 270.872 131.071 270.744C130.601 270.616 130.132 270.552 129.663 270.552C129.236 270.509 128.937 270.104 128.767 269.336C128.681 268.952 128.681 268.504 128.767 267.992C128.895 267.437 128.98 266.904 129.023 266.392C129.108 265.837 129.108 265.347 129.023 264.92C128.937 264.493 128.66 264.195 128.191 264.024C127.892 263.939 127.529 264.003 127.103 264.216C126.676 264.429 126.292 264.792 125.951 265.304C125.652 265.773 125.46 266.349 125.375 267.032C125.332 267.715 125.524 268.483 125.951 269.336C126.121 269.677 126.569 270.04 127.295 270.424C128.02 270.765 128.767 271.192 129.535 271.704C130.345 272.216 131.071 272.835 131.711 273.56C132.393 274.285 132.756 275.16 132.799 276.184C132.841 276.824 132.863 277.784 132.863 279.064C132.863 280.344 132.863 281.795 132.863 283.416C132.905 284.995 132.927 286.68 132.927 288.472C132.969 290.221 132.991 291.928 132.991 293.592C132.991 295.213 132.969 296.728 132.927 298.136C132.927 299.544 132.927 300.675 132.927 301.528C132.927 302.211 132.393 302.723 131.327 303.064C130.26 303.405 129.044 303.576 127.679 303.576C126.911 303.576 126.164 303.512 125.439 303.384C124.713 303.299 124.052 303.149 123.455 302.936C122.857 302.68 122.367 302.381 121.983 302.04C121.599 301.699 121.407 301.315 121.407 300.888C121.407 300.376 121.407 299.437 121.407 298.072C121.449 296.664 121.471 294.979 121.471 293.016C121.513 291.053 121.556 288.877 121.599 286.488C121.641 284.099 121.663 281.688 121.663 279.256C121.663 277.08 121.641 274.925 121.599 272.792C121.599 270.659 121.577 268.717 121.535 266.968C121.492 265.219 121.449 263.747 121.407 262.552C121.407 261.315 121.428 260.483 121.471 260.056ZM136.219 260.056C136.262 259.459 136.432 259.011 136.731 258.712C137.03 258.371 137.371 258.115 137.755 257.944C138.139 257.773 138.544 257.667 138.971 257.624C139.44 257.539 139.824 257.475 140.123 257.432C140.336 257.389 141.083 257.389 142.363 257.432C143.686 257.432 145.264 257.453 147.099 257.496C148.934 257.496 150.896 257.517 152.987 257.56C155.12 257.603 157.126 257.645 159.003 257.688C160.923 257.731 162.587 257.773 163.995 257.816C165.446 257.816 166.363 257.816 166.747 257.816C167.984 257.816 168.838 258.093 169.307 258.648C169.776 259.203 169.968 260.312 169.883 261.976C169.883 262.701 169.947 263.576 170.075 264.6C170.246 265.624 170.352 266.712 170.395 267.864C170.48 269.016 170.438 270.189 170.267 271.384C170.096 272.536 169.691 273.603 169.051 274.584C168.838 274.968 168.539 275.245 168.155 275.416C167.771 275.544 167.366 275.608 166.939 275.608C166.299 275.608 165.638 275.48 164.955 275.224C164.272 274.968 163.718 274.712 163.291 274.456C162.95 274.243 162.566 273.944 162.139 273.56C161.755 273.176 161.392 272.749 161.051 272.28C160.752 271.768 160.539 271.277 160.411 270.808C160.283 270.296 160.347 269.827 160.603 269.4C160.816 269.101 161.072 268.931 161.371 268.888C161.67 268.845 161.99 268.824 162.331 268.824C162.886 268.824 163.227 268.739 163.355 268.568C163.44 268.397 163.419 267.992 163.291 267.352C163.206 266.669 163.014 265.987 162.715 265.304C162.416 264.621 162.011 264.045 161.499 263.576C161.03 263.064 160.454 262.915 159.771 263.128C159.216 263.299 158.811 264.109 158.555 265.56C158.299 266.968 158.15 268.76 158.107 270.936C158.107 273.069 158.192 275.416 158.363 277.976C158.534 280.493 158.726 282.925 158.939 285.272C159.152 287.619 159.366 289.731 159.579 291.608C159.792 293.443 159.963 294.744 160.091 295.512C160.262 296.664 160.368 297.645 160.411 298.456C160.454 299.224 160.39 299.864 160.219 300.376C160.091 300.888 159.856 301.315 159.515 301.656C159.216 301.997 158.768 302.317 158.171 302.616C157.702 302.829 157.04 303 156.187 303.128C155.334 303.256 154.395 303.32 153.371 303.32C152.603 303.32 151.835 303.277 151.067 303.192C150.299 303.149 149.595 303.064 148.955 302.936C148.315 302.765 147.76 302.595 147.291 302.424C146.822 302.211 146.502 301.976 146.331 301.72C145.819 300.867 145.606 299.864 145.691 298.712C145.819 297.56 145.968 296.109 146.139 294.36C146.224 293.635 146.352 292.376 146.523 290.584C146.694 288.792 146.886 286.765 147.099 284.504C147.312 282.2 147.504 279.811 147.675 277.336C147.846 274.861 147.952 272.6 147.995 270.552C148.038 268.504 147.995 266.819 147.867 265.496C147.739 264.173 147.462 263.512 147.035 263.512C146.566 263.512 146.054 263.811 145.499 264.408C144.944 264.963 144.454 265.603 144.027 266.328C143.6 267.053 143.28 267.736 143.067 268.376C142.854 269.016 142.854 269.4 143.067 269.528C143.28 269.656 143.558 269.72 143.899 269.72C144.24 269.677 144.582 269.656 144.923 269.656C145.264 269.656 145.542 269.677 145.755 269.72C146.011 269.763 146.16 269.891 146.203 270.104C146.288 270.488 146.31 271 146.267 271.64C146.267 272.237 146.118 272.856 145.819 273.496C145.52 274.136 145.03 274.712 144.347 275.224C143.707 275.736 142.79 276.099 141.595 276.312C140.614 276.44 139.782 276.419 139.099 276.248C138.416 276.077 137.862 275.8 137.435 275.416C137.008 274.989 136.688 274.477 136.475 273.88C136.304 273.283 136.219 272.664 136.219 272.024C136.219 271.341 136.198 270.445 136.155 269.336C136.155 268.227 136.155 267.075 136.155 265.88C136.155 264.685 136.155 263.555 136.155 262.488C136.155 261.421 136.176 260.611 136.219 260.056ZM173.286 261.144C173.457 260.461 173.691 259.928 173.99 259.544C174.289 259.16 174.609 258.861 174.95 258.648C175.291 258.392 175.675 258.221 176.102 258.136C176.529 258.008 176.955 257.88 177.382 257.752C178.321 257.453 179.793 257.24 181.798 257.112C183.803 256.984 186.001 256.92 188.39 256.92C189.926 256.92 191.483 256.941 193.062 256.984C194.641 257.027 196.113 257.091 197.478 257.176C198.843 257.261 200.038 257.347 201.062 257.432C202.129 257.517 202.939 257.624 203.494 257.752C204.006 257.837 204.497 257.944 204.966 258.072C205.478 258.2 205.883 258.584 206.182 259.224C206.523 259.864 206.737 260.867 206.822 262.232C206.907 263.597 206.822 265.56 206.566 268.12C206.438 269.528 206.395 270.915 206.438 272.28C206.523 273.603 206.545 274.797 206.502 275.864C206.502 276.931 206.353 277.827 206.054 278.552C205.798 279.277 205.265 279.704 204.454 279.832C202.449 280.173 200.678 280.024 199.142 279.384C197.606 278.744 196.347 277.933 195.366 276.952C194.385 275.971 193.702 274.968 193.318 273.944C192.977 272.877 192.998 272.109 193.382 271.64C193.638 271.384 193.915 271.256 194.214 271.256C194.598 271.256 195.003 271.384 195.43 271.64C195.857 271.896 196.262 272.173 196.646 272.472C197.073 272.728 197.435 272.941 197.734 273.112C198.033 273.283 198.246 273.261 198.374 273.048C198.715 272.451 198.63 271.789 198.118 271.064C197.606 270.339 196.859 269.635 195.878 268.952C194.897 268.269 193.745 267.715 192.422 267.288C191.099 266.819 189.798 266.584 188.518 266.584C187.537 266.584 186.598 266.755 185.702 267.096C184.849 267.395 184.081 267.928 183.398 268.696C183.099 269.037 183.035 269.507 183.206 270.104C183.419 270.701 183.718 271.299 184.102 271.896C184.529 272.451 184.955 272.941 185.382 273.368C185.851 273.752 186.214 273.944 186.47 273.944C186.726 273.944 186.939 273.859 187.11 273.688C187.281 273.475 187.43 273.261 187.558 273.048C187.729 272.835 187.899 272.621 188.07 272.408C188.241 272.195 188.454 272.088 188.71 272.088C189.35 272.045 189.905 272.365 190.374 273.048C190.886 273.688 191.291 274.499 191.59 275.48C191.931 276.461 192.145 277.528 192.23 278.68C192.358 279.832 192.379 280.899 192.294 281.88C192.209 282.861 192.017 283.672 191.718 284.312C191.419 284.952 190.993 285.272 190.438 285.272C189.926 285.272 189.478 285.123 189.094 284.824C188.753 284.525 188.411 284.205 188.07 283.864C187.771 283.48 187.473 283.139 187.174 282.84C186.875 282.541 186.534 282.392 186.15 282.392C185.937 282.392 185.702 282.456 185.446 282.584C184.934 282.883 184.678 283.48 184.678 284.376C184.678 285.229 184.849 286.253 185.19 287.448C185.574 288.6 186.086 289.816 186.726 291.096C187.409 292.376 188.155 293.549 188.966 294.616C189.777 295.683 190.609 296.579 191.462 297.304C192.358 298.029 193.211 298.413 194.022 298.456C195.259 298.499 196.219 298.093 196.902 297.24C197.627 296.387 198.118 295.448 198.374 294.424C198.63 293.4 198.673 292.461 198.502 291.608C198.374 290.755 198.097 290.328 197.67 290.328C197.158 290.328 196.774 290.392 196.518 290.52C196.305 290.648 196.113 290.797 195.942 290.968C195.814 291.139 195.643 291.267 195.43 291.352C195.217 291.437 194.875 291.459 194.406 291.416C193.851 291.331 193.382 290.968 192.998 290.328C192.614 289.688 192.422 288.963 192.422 288.152C192.422 287.299 192.635 286.467 193.062 285.656C193.489 284.845 194.214 284.248 195.238 283.864C195.963 283.565 196.774 283.352 197.67 283.224C198.566 283.053 199.462 282.968 200.358 282.968C201.425 282.968 202.406 283.096 203.302 283.352C204.198 283.608 204.838 284.035 205.222 284.632C205.606 285.315 205.905 286.339 206.118 287.704C206.374 289.027 206.545 290.456 206.63 291.992C206.758 293.528 206.843 295.064 206.886 296.6C206.971 298.093 207.057 299.352 207.142 300.376C207.227 301.4 206.907 302.168 206.182 302.68C205.457 303.192 204.433 303.469 203.11 303.512C202.598 303.512 201.809 303.533 200.742 303.576C199.675 303.619 198.438 303.64 197.03 303.64C195.665 303.683 194.193 303.704 192.614 303.704C191.035 303.747 189.457 303.768 187.878 303.768C185.574 303.768 183.441 303.725 181.478 303.64C179.515 303.597 178.086 303.512 177.19 303.384C176.209 303.213 175.483 302.893 175.014 302.424C174.545 301.955 174.225 301.421 174.054 300.824C173.883 300.184 173.798 299.544 173.798 298.904C173.841 298.221 173.883 297.624 173.926 297.112C173.926 296.856 173.905 296.173 173.862 295.064C173.862 293.955 173.819 292.589 173.734 290.968C173.691 289.304 173.627 287.469 173.542 285.464C173.499 283.459 173.435 281.411 173.35 279.32C173.307 277.229 173.243 275.181 173.158 273.176C173.115 271.128 173.094 269.272 173.094 267.608C173.094 265.944 173.094 264.536 173.094 263.384C173.137 262.232 173.201 261.485 173.286 261.144ZM212.916 257.624C213.641 257.368 214.751 257.24 216.244 257.24C217.567 257.24 219.017 257.368 220.596 257.624C222.175 257.837 223.583 258.243 224.82 258.84C225.289 259.053 225.609 259.437 225.78 259.992C225.993 260.504 226.079 261.059 226.036 261.656C225.993 262.211 225.865 262.723 225.652 263.192C225.481 263.661 225.247 263.896 224.948 263.896C224.265 263.939 223.668 263.789 223.156 263.448C222.644 263.064 222.111 262.851 221.556 262.808C221.343 262.808 221.236 263.149 221.236 263.832C221.279 264.515 221.407 265.389 221.62 266.456C221.876 267.523 222.196 268.675 222.58 269.912C222.964 271.107 223.369 272.216 223.796 273.24C224.265 274.264 224.735 275.117 225.204 275.8C225.673 276.483 226.121 276.803 226.548 276.76C226.761 276.717 226.911 276.355 226.996 275.672C227.124 274.989 227.209 274.115 227.252 273.048C227.295 271.939 227.316 270.723 227.316 269.4C227.316 268.077 227.316 266.797 227.316 265.56C227.316 264.28 227.337 263.128 227.38 262.104C227.465 261.037 227.572 260.248 227.7 259.736C227.999 258.797 228.831 258.115 230.196 257.688C231.561 257.261 233.076 257.048 234.74 257.048C235.636 257.048 236.532 257.112 237.428 257.24C238.367 257.325 239.199 257.496 239.924 257.752C240.692 257.965 241.332 258.243 241.844 258.584C242.356 258.883 242.697 259.224 242.868 259.608C243.209 260.376 243.38 261.315 243.38 262.424C243.38 263.491 243.252 264.515 242.996 265.496C242.783 266.477 242.441 267.309 241.972 267.992C241.503 268.675 240.948 268.952 240.308 268.824C239.967 268.739 239.732 268.525 239.604 268.184C239.519 267.8 239.369 267.629 239.156 267.672C238.772 267.757 238.239 268.355 237.556 269.464C236.916 270.531 236.276 271.832 235.636 273.368C235.039 274.904 234.505 276.547 234.036 278.296C233.609 280.003 233.417 281.539 233.46 282.904C233.46 283.416 233.823 284.184 234.548 285.208C235.316 286.232 236.212 287.363 237.236 288.6C238.26 289.837 239.284 291.139 240.308 292.504C241.375 293.869 242.185 295.149 242.74 296.344C243.252 297.411 243.572 298.413 243.7 299.352C243.828 300.248 243.679 301.037 243.252 301.72C242.868 302.36 242.164 302.829 241.14 303.128C240.116 303.469 238.687 303.597 236.852 303.512C233.225 303.299 230.601 302.723 228.98 301.784C227.401 300.845 226.697 299.821 226.868 298.712C226.953 298.243 227.124 297.923 227.38 297.752C227.636 297.581 227.935 297.496 228.276 297.496C228.745 297.496 229.257 297.581 229.812 297.752C230.367 297.923 230.879 298.029 231.348 298.072C231.604 298.072 231.54 297.752 231.156 297.112C230.815 296.429 230.26 295.597 229.492 294.616C228.767 293.635 227.913 292.568 226.932 291.416C225.951 290.221 224.948 289.133 223.924 288.152C222.943 287.128 222.004 286.296 221.108 285.656C220.255 284.973 219.572 284.632 219.06 284.632C218.804 284.632 218.612 284.739 218.484 284.952C218.228 285.421 218.313 286.253 218.74 287.448C219.167 288.6 219.721 289.901 220.404 291.352C221.129 292.76 221.855 294.211 222.58 295.704C223.348 297.155 223.924 298.456 224.308 299.608C224.649 300.547 224.649 301.293 224.308 301.848C224.009 302.36 223.519 302.744 222.836 303C222.196 303.256 221.428 303.405 220.532 303.448C219.679 303.533 218.847 303.576 218.036 303.576C217.012 303.576 216.009 303.576 215.028 303.576C214.089 303.576 213.236 303.363 212.468 302.936C211.7 302.509 211.06 301.784 210.548 300.76C210.079 299.736 209.844 298.2 209.844 296.152C209.844 294.829 209.929 293.144 210.1 291.096C210.313 289.048 210.505 286.744 210.676 284.184C210.847 281.624 210.932 278.872 210.932 275.928C210.932 272.941 210.74 269.891 210.356 266.776C210.185 265.411 210.057 264.216 209.972 263.192C209.929 262.168 209.993 261.293 210.164 260.568C210.335 259.843 210.633 259.245 211.06 258.776C211.487 258.307 212.105 257.923 212.916 257.624ZM246.663 264.28C246.449 263 246.343 261.976 246.343 261.208C246.385 260.397 246.535 259.779 246.791 259.352C247.089 258.883 247.495 258.563 248.007 258.392C248.561 258.221 249.223 258.115 249.991 258.072C250.759 258.029 251.761 258.029 252.999 258.072C254.279 258.072 255.537 258.179 256.775 258.392C258.055 258.605 259.207 258.968 260.231 259.48C261.297 259.992 261.98 260.739 262.279 261.72C262.577 262.659 262.684 263.555 262.599 264.408C262.513 265.219 262.3 265.944 261.958 266.584C261.617 267.224 261.169 267.736 260.615 268.12C260.103 268.461 259.548 268.632 258.951 268.632C258.268 268.632 257.585 268.355 256.903 267.8C256.647 267.587 256.54 267.288 256.583 266.904C256.668 266.52 256.732 266.136 256.775 265.752C256.86 265.368 256.839 265.048 256.711 264.792C256.625 264.493 256.284 264.344 255.687 264.344C254.833 264.344 254.449 265.112 254.535 266.648C254.663 268.184 255.089 270.467 255.815 273.496C256.071 274.563 256.391 275.821 256.775 277.272C257.159 278.723 257.585 280.216 258.055 281.752C258.567 283.288 259.121 284.803 259.719 286.296C260.316 287.747 260.977 289.048 261.703 290.2C262.428 291.352 263.196 292.269 264.007 292.952C264.817 293.635 265.692 293.955 266.631 293.912C267.271 293.869 267.783 293.464 268.167 292.696C268.593 291.885 268.892 290.861 269.063 289.624C269.276 288.387 269.404 287.021 269.447 285.528C269.532 284.035 269.553 282.584 269.511 281.176C269.468 279.725 269.404 278.403 269.319 277.208C269.233 275.971 269.148 275.032 269.063 274.392C268.892 272.984 268.636 271.683 268.295 270.488C267.996 269.293 267.655 268.163 267.271 267.096C266.929 266.029 266.567 265.005 266.183 264.024C265.799 263.043 265.479 262.083 265.223 261.144C264.967 260.163 265.159 259.416 265.799 258.904C266.439 258.349 267.292 257.944 268.359 257.688C269.425 257.432 270.556 257.283 271.751 257.24C272.988 257.155 274.055 257.112 274.951 257.112C276.743 257.112 278.087 257.56 278.983 258.456C279.921 259.309 280.391 260.888 280.391 263.192C280.391 263.704 280.348 264.365 280.263 265.176C280.22 265.944 280.156 266.84 280.071 267.864C279.985 268.845 279.9 269.912 279.815 271.064C279.772 272.173 279.751 273.325 279.751 274.52C279.751 276.312 279.772 278.083 279.815 279.832C279.857 281.539 279.857 283.181 279.815 284.76C279.815 286.296 279.751 287.768 279.623 289.176C279.495 290.541 279.238 291.8 278.854 292.952C278.3 294.616 277.511 296.088 276.487 297.368C275.463 298.648 274.311 299.736 273.031 300.632C271.751 301.528 270.364 302.232 268.871 302.744C267.42 303.213 265.948 303.469 264.455 303.512C262.663 303.555 261.02 303.427 259.527 303.128C258.033 302.872 256.647 302.381 255.367 301.656C254.087 300.888 252.892 299.885 251.783 298.648C250.716 297.411 249.692 295.853 248.711 293.976C248.071 292.696 247.58 291.224 247.239 289.56C246.94 287.853 246.748 286.061 246.663 284.184C246.577 282.264 246.556 280.323 246.599 278.36C246.641 276.397 246.684 274.52 246.727 272.728C246.812 270.936 246.855 269.315 246.855 267.864C246.897 266.371 246.833 265.176 246.663 264.28ZM308.269 241.88C308.525 241.795 309.037 241.731 309.805 241.688C310.573 241.603 311.512 241.539 312.621 241.496C313.73 241.453 315.01 241.432 316.461 241.432C317.912 241.389 319.426 241.368 321.005 241.368C323.736 241.368 326.552 241.389 329.453 241.432C332.397 241.475 335.128 241.539 337.645 241.624C340.162 241.709 342.296 241.816 344.045 241.944C345.837 242.029 346.925 242.136 347.309 242.264C347.906 242.477 348.312 242.861 348.525 243.416C348.738 243.928 348.845 244.547 348.845 245.272C348.845 245.955 348.781 246.701 348.653 247.512C348.568 248.28 348.525 249.048 348.525 249.816C348.482 251.779 348.546 253.784 348.717 255.832C348.888 257.837 348.952 259.672 348.909 261.336C348.866 263 348.61 264.387 348.141 265.496C347.714 266.605 346.84 267.267 345.517 267.48C344.28 267.693 343.021 267.459 341.741 266.776C340.461 266.093 339.33 265.261 338.349 264.28C337.41 263.256 336.706 262.211 336.237 261.144C335.768 260.077 335.682 259.267 335.981 258.712C336.237 258.285 336.472 258.008 336.685 257.88C336.941 257.752 337.197 257.688 337.453 257.688C337.709 257.688 337.965 257.731 338.221 257.816C338.477 257.859 338.712 257.88 338.925 257.88C339.181 257.88 339.394 257.795 339.565 257.624C339.906 257.283 339.97 256.621 339.757 255.64C339.544 254.616 339.181 253.571 338.669 252.504C338.2 251.395 337.624 250.413 336.941 249.56C336.258 248.707 335.597 248.28 334.957 248.28C334.701 248.28 334.466 248.365 334.253 248.536C333.912 248.792 333.634 249.88 333.421 251.8C333.25 253.72 333.144 256.131 333.101 259.032C333.058 261.891 333.08 265.048 333.165 268.504C333.25 271.96 333.4 275.331 333.613 278.616C333.826 281.901 334.082 284.931 334.381 287.704C334.722 290.477 335.085 292.632 335.469 294.168C336.066 296.472 336.258 298.243 336.045 299.48C335.832 300.717 335.277 301.656 334.381 302.296C333.528 302.893 332.354 303.256 330.861 303.384C329.41 303.512 327.725 303.597 325.805 303.64C324.141 303.683 322.669 303.597 321.389 303.384C320.152 303.213 319.128 302.829 318.317 302.232C317.549 301.592 317.016 300.717 316.717 299.608C316.461 298.456 316.482 296.963 316.781 295.128C316.909 294.189 317.08 292.824 317.293 291.032C317.549 289.24 317.805 287.192 318.061 284.888C318.36 282.584 318.637 280.109 318.893 277.464C319.192 274.819 319.448 272.173 319.661 269.528C319.917 266.883 320.109 264.344 320.237 261.912C320.408 259.437 320.493 257.24 320.493 255.32C320.493 253.4 320.408 251.843 320.237 250.648C320.109 249.453 319.853 248.792 319.469 248.664C319.128 248.536 318.68 248.643 318.125 248.984C317.57 249.325 317.016 249.795 316.461 250.392C315.906 250.989 315.352 251.672 314.797 252.44C314.285 253.165 313.837 253.891 313.453 254.616C313.112 255.299 312.877 255.917 312.749 256.472C312.664 257.027 312.749 257.411 313.005 257.624C313.346 257.923 313.709 258.115 314.093 258.2C314.477 258.243 314.84 258.264 315.181 258.264C315.65 258.264 316.056 258.264 316.397 258.264C316.738 258.221 316.994 258.307 317.165 258.52C317.464 258.861 317.549 259.416 317.421 260.184C317.293 260.952 317.016 261.827 316.589 262.808C316.162 263.747 315.629 264.707 314.989 265.688C314.349 266.669 313.645 267.565 312.877 268.376C312.109 269.144 311.32 269.763 310.509 270.232C309.698 270.659 308.909 270.808 308.141 270.68C306.861 270.467 306.029 269.976 305.645 269.208C305.304 268.397 305.133 267.395 305.133 266.2C305.133 265.005 305.176 263.683 305.261 262.232C305.346 260.739 305.197 259.203 304.813 257.624C304.429 256.045 304.088 254.445 303.789 252.824C303.49 251.203 303.384 249.688 303.469 248.28C303.597 246.829 304.002 245.549 304.685 244.44C305.41 243.331 306.605 242.477 308.269 241.88ZM351.852 290.2C351.937 289.389 351.98 288.28 351.98 286.872C352.022 285.464 352.022 283.907 351.98 282.2C351.98 280.451 351.958 278.659 351.916 276.824C351.916 274.989 351.894 273.261 351.852 271.64C351.852 269.976 351.83 268.525 351.788 267.288C351.745 266.008 351.702 265.091 351.66 264.536C351.617 263.725 351.574 262.915 351.532 262.104C351.489 261.293 351.553 260.547 351.724 259.864C351.894 259.181 352.172 258.605 352.556 258.136C352.982 257.667 353.601 257.347 354.411 257.176C355.009 257.048 356.118 256.941 357.74 256.856C359.404 256.728 361.302 256.664 363.436 256.664C364.972 256.664 366.572 256.707 368.236 256.792C369.9 256.877 371.5 257.027 373.036 257.24C374.572 257.411 375.98 257.688 377.26 258.072C378.582 258.413 379.67 258.84 380.524 259.352C381.974 260.248 383.084 261.443 383.852 262.936C384.662 264.429 385.196 266.008 385.451 267.672C385.708 269.293 385.729 270.893 385.516 272.472C385.302 274.051 384.918 275.373 384.364 276.44C383.809 277.507 383.254 278.381 382.7 279.064C382.188 279.747 381.697 280.344 381.228 280.856C380.801 281.325 380.46 281.752 380.204 282.136C379.948 282.477 379.82 282.883 379.82 283.352C379.862 283.565 379.99 284.056 380.204 284.824C380.46 285.549 380.758 286.403 381.1 287.384C381.484 288.365 381.889 289.432 382.316 290.584C382.785 291.693 383.212 292.76 383.596 293.784C383.98 294.808 384.321 295.725 384.62 296.536C384.961 297.304 385.174 297.859 385.26 298.2C385.601 299.181 385.473 300.099 384.876 300.952C384.321 301.763 383.681 302.275 382.956 302.488C382.572 302.573 381.74 302.701 380.46 302.872C379.18 303.043 377.836 303.128 376.428 303.128C375.318 303.128 374.273 303.064 373.292 302.936C372.353 302.765 371.628 302.488 371.116 302.104C370.006 301.293 369.174 300.291 368.62 299.096C368.065 297.901 367.724 296.749 367.596 295.64C367.468 294.488 367.51 293.507 367.724 292.696C367.98 291.843 368.342 291.373 368.812 291.288C369.324 291.203 369.772 291.416 370.156 291.928C370.582 292.44 370.945 293.016 371.244 293.656C371.585 294.296 371.884 294.893 372.14 295.448C372.396 296.003 372.63 296.28 372.844 296.28C373.057 296.28 373.057 295.768 372.844 294.744C372.63 293.72 372.225 292.525 371.628 291.16C371.073 289.752 370.348 288.344 369.452 286.936C368.556 285.485 367.532 284.376 366.38 283.608C364.63 282.413 363.158 281.816 361.964 281.816C360.257 281.816 359.724 282.925 360.364 285.144C360.62 286.083 360.982 287.085 361.452 288.152C361.921 289.176 362.39 290.2 362.86 291.224C363.372 292.248 363.862 293.229 364.332 294.168C364.801 295.064 365.185 295.832 365.484 296.472C365.782 297.112 365.996 297.816 366.124 298.584C366.252 299.309 366.252 300.035 366.124 300.76C365.996 301.443 365.74 302.061 365.356 302.616C364.972 303.171 364.417 303.555 363.692 303.768C362.838 303.981 361.9 304.088 360.876 304.088C360.065 304.088 359.233 304.024 358.38 303.896C357.526 303.811 356.716 303.661 355.948 303.448C355.18 303.235 354.497 302.979 353.9 302.68C353.302 302.381 352.876 302.04 352.62 301.656C352.236 301.059 351.958 300.355 351.788 299.544C351.617 298.733 351.51 297.837 351.468 296.856C351.468 295.832 351.51 294.765 351.596 293.656C351.681 292.504 351.766 291.352 351.852 290.2ZM374.38 274.456C374.806 273.859 374.892 273.155 374.636 272.344C374.38 271.533 373.91 270.68 373.228 269.784C372.588 268.888 371.777 267.992 370.796 267.096C369.857 266.2 368.876 265.411 367.852 264.728C366.828 264.045 365.804 263.491 364.78 263.064C363.798 262.595 362.966 262.36 362.284 262.36C361.644 262.36 361.174 262.573 360.876 263C360.534 263.512 360.449 264.195 360.62 265.048C360.833 265.859 361.217 266.733 361.772 267.672C362.326 268.611 363.009 269.549 363.82 270.488C364.673 271.427 365.569 272.28 366.508 273.048C367.489 273.816 368.449 274.435 369.388 274.904C370.369 275.373 371.265 275.608 372.076 275.608C373.1 275.608 373.868 275.224 374.38 274.456ZM388.346 260.056C388.388 259.459 388.58 258.968 388.922 258.584C389.263 258.2 389.668 257.901 390.138 257.688C390.65 257.475 391.183 257.325 391.738 257.24C392.292 257.112 392.804 257.048 393.274 257.048C394.127 257.048 394.959 257.155 395.77 257.368C396.623 257.539 397.391 257.795 398.074 258.136C398.799 258.477 399.375 258.904 399.802 259.416C400.228 259.885 400.442 260.419 400.442 261.016C400.442 262.296 400.399 263.555 400.314 264.792C400.271 265.987 400.164 267.053 399.994 267.992C399.823 268.931 399.567 269.656 399.226 270.168C398.884 270.68 398.458 270.872 397.946 270.744C397.476 270.616 397.007 270.552 396.538 270.552C396.111 270.509 395.812 270.104 395.642 269.336C395.556 268.952 395.556 268.504 395.642 267.992C395.77 267.437 395.855 266.904 395.898 266.392C395.983 265.837 395.983 265.347 395.898 264.92C395.812 264.493 395.535 264.195 395.066 264.024C394.767 263.939 394.404 264.003 393.978 264.216C393.551 264.429 393.167 264.792 392.826 265.304C392.527 265.773 392.335 266.349 392.25 267.032C392.207 267.715 392.399 268.483 392.826 269.336C392.996 269.677 393.444 270.04 394.17 270.424C394.895 270.765 395.642 271.192 396.41 271.704C397.22 272.216 397.946 272.835 398.586 273.56C399.268 274.285 399.631 275.16 399.674 276.184C399.716 276.824 399.738 277.784 399.738 279.064C399.738 280.344 399.738 281.795 399.738 283.416C399.78 284.995 399.802 286.68 399.802 288.472C399.844 290.221 399.866 291.928 399.866 293.592C399.866 295.213 399.844 296.728 399.802 298.136C399.802 299.544 399.802 300.675 399.802 301.528C399.802 302.211 399.268 302.723 398.202 303.064C397.135 303.405 395.919 303.576 394.554 303.576C393.786 303.576 393.039 303.512 392.314 303.384C391.588 303.299 390.927 303.149 390.33 302.936C389.732 302.68 389.242 302.381 388.858 302.04C388.474 301.699 388.282 301.315 388.282 300.888C388.282 300.376 388.282 299.437 388.282 298.072C388.324 296.664 388.346 294.979 388.346 293.016C388.388 291.053 388.431 288.877 388.474 286.488C388.516 284.099 388.538 281.688 388.538 279.256C388.538 277.08 388.516 274.925 388.474 272.792C388.474 270.659 388.452 268.717 388.41 266.968C388.367 265.219 388.324 263.747 388.282 262.552C388.282 261.315 388.303 260.483 388.346 260.056ZM403.99 259.48C404.63 258.755 405.355 258.243 406.166 257.944C407.019 257.645 407.873 257.496 408.726 257.496C409.707 257.496 410.582 257.688 411.35 258.072C412.161 258.413 412.673 258.861 412.886 259.416C413.099 259.885 413.121 260.483 412.95 261.208C412.779 261.891 412.587 262.616 412.374 263.384C412.161 264.152 411.99 264.941 411.862 265.752C411.777 266.563 411.883 267.331 412.182 268.056C412.395 268.483 412.822 269.101 413.462 269.912C414.145 270.68 414.934 271.512 415.83 272.408C416.769 273.304 417.771 274.221 418.838 275.16C419.947 276.056 420.993 276.845 421.974 277.528C422.998 278.168 423.915 278.637 424.726 278.936C425.537 279.235 426.155 279.256 426.582 279C426.966 278.744 427.094 278.189 426.966 277.336C426.838 276.483 426.539 275.501 426.07 274.392C425.643 273.24 425.089 272.045 424.406 270.808C423.766 269.571 423.105 268.461 422.422 267.48C421.782 266.456 421.163 265.645 420.566 265.048C419.969 264.408 419.499 264.152 419.158 264.28C418.646 264.408 418.39 264.685 418.39 265.112C418.39 265.496 418.454 265.923 418.582 266.392C418.71 266.819 418.817 267.267 418.902 267.736C419.03 268.163 418.923 268.483 418.582 268.696C418.283 268.909 417.963 269.016 417.622 269.016C417.153 269.016 416.641 268.845 416.086 268.504C415.574 268.163 415.126 267.693 414.742 267.096C414.358 266.499 414.102 265.773 413.974 264.92C413.846 264.024 413.931 263.043 414.23 261.976C414.657 260.483 415.617 259.245 417.11 258.264C418.646 257.283 420.523 256.792 422.742 256.792C423.979 256.792 425.281 256.984 426.646 257.368C428.054 257.709 429.505 258.285 430.998 259.096C432.491 259.864 433.686 260.952 434.582 262.36C435.478 263.768 436.118 265.261 436.502 266.84C436.929 268.419 437.099 269.955 437.014 271.448C436.971 272.941 436.737 274.179 436.31 275.16C435.883 276.141 435.499 276.952 435.158 277.592C434.817 278.232 434.518 278.765 434.262 279.192C434.049 279.576 433.899 279.917 433.814 280.216C433.729 280.515 433.707 280.792 433.75 281.048C433.835 281.304 434.134 281.859 434.646 282.712C435.158 283.523 435.649 284.589 436.118 285.912C436.587 287.192 436.886 288.707 437.014 290.456C437.185 292.205 436.929 294.147 436.246 296.28C435.393 298.925 434.198 300.803 432.662 301.912C431.169 302.979 429.526 303.512 427.734 303.512C426.625 303.512 425.515 303.341 424.406 303C423.297 302.659 422.209 302.189 421.142 301.592C419.734 300.824 418.539 299.821 417.558 298.584C416.619 297.304 415.873 296.045 415.318 294.808C414.763 293.571 414.443 292.483 414.358 291.544C414.273 290.563 414.422 289.944 414.806 289.688C415.19 289.475 415.638 289.453 416.15 289.624C416.662 289.795 417.195 290.029 417.75 290.328C418.347 290.627 418.923 290.925 419.478 291.224C420.033 291.48 420.523 291.608 420.95 291.608C421.59 291.608 422.017 291.288 422.23 290.648C422.486 289.965 422.358 289.069 421.846 287.96C421.377 286.851 420.694 285.784 419.798 284.76C418.945 283.693 417.985 282.797 416.918 282.072C415.851 281.304 414.87 280.92 413.974 280.92C413.505 280.92 413.078 281.048 412.694 281.304C411.926 281.816 411.499 282.84 411.414 284.376C411.371 285.869 411.521 287.491 411.862 289.24C412.203 290.947 412.63 292.611 413.142 294.232C413.697 295.853 414.187 297.027 414.614 297.752C415.467 299.245 415.766 300.568 415.51 301.72C415.297 302.829 414.443 303.491 412.95 303.704C411.841 303.875 410.753 303.896 409.686 303.768C408.619 303.64 407.659 303.405 406.806 303.064C405.995 302.723 405.355 302.253 404.886 301.656C404.417 301.059 404.225 300.376 404.31 299.608C404.438 298.584 404.502 297.155 404.502 295.32C404.545 293.485 404.523 291.587 404.438 289.624C404.395 287.619 404.31 285.699 404.182 283.864C404.097 282.029 404.011 280.579 403.926 279.512C403.883 278.829 403.798 277.912 403.67 276.76C403.585 275.608 403.478 274.349 403.35 272.984C403.265 271.619 403.179 270.211 403.094 268.76C403.051 267.309 403.03 265.965 403.03 264.728C403.073 263.448 403.158 262.339 403.286 261.4C403.457 260.461 403.691 259.821 403.99 259.48ZM439.911 261.144C440.082 260.461 440.316 259.928 440.615 259.544C440.914 259.16 441.234 258.861 441.575 258.648C441.916 258.392 442.3 258.221 442.727 258.136C443.154 258.008 443.58 257.88 444.007 257.752C444.946 257.453 446.418 257.24 448.423 257.112C450.428 256.984 452.626 256.92 455.015 256.92C456.551 256.92 458.108 256.941 459.687 256.984C461.266 257.027 462.738 257.091 464.103 257.176C465.468 257.261 466.663 257.347 467.687 257.432C468.754 257.517 469.564 257.624 470.119 257.752C470.631 257.837 471.122 257.944 471.591 258.072C472.103 258.2 472.508 258.584 472.807 259.224C473.148 259.864 473.362 260.867 473.447 262.232C473.532 263.597 473.447 265.56 473.191 268.12C473.063 269.528 473.02 270.915 473.063 272.28C473.148 273.603 473.17 274.797 473.127 275.864C473.127 276.931 472.978 277.827 472.679 278.552C472.423 279.277 471.89 279.704 471.079 279.832C469.074 280.173 467.303 280.024 465.767 279.384C464.231 278.744 462.972 277.933 461.991 276.952C461.01 275.971 460.327 274.968 459.943 273.944C459.602 272.877 459.623 272.109 460.007 271.64C460.263 271.384 460.54 271.256 460.839 271.256C461.223 271.256 461.628 271.384 462.055 271.64C462.482 271.896 462.887 272.173 463.271 272.472C463.698 272.728 464.06 272.941 464.359 273.112C464.658 273.283 464.871 273.261 464.999 273.048C465.34 272.451 465.255 271.789 464.743 271.064C464.231 270.339 463.484 269.635 462.503 268.952C461.522 268.269 460.37 267.715 459.047 267.288C457.724 266.819 456.423 266.584 455.143 266.584C454.162 266.584 453.223 266.755 452.327 267.096C451.474 267.395 450.706 267.928 450.023 268.696C449.724 269.037 449.66 269.507 449.831 270.104C450.044 270.701 450.343 271.299 450.727 271.896C451.154 272.451 451.58 272.941 452.007 273.368C452.476 273.752 452.839 273.944 453.095 273.944C453.351 273.944 453.564 273.859 453.735 273.688C453.906 273.475 454.055 273.261 454.183 273.048C454.354 272.835 454.524 272.621 454.695 272.408C454.866 272.195 455.079 272.088 455.335 272.088C455.975 272.045 456.53 272.365 456.999 273.048C457.511 273.688 457.916 274.499 458.215 275.48C458.556 276.461 458.77 277.528 458.855 278.68C458.983 279.832 459.004 280.899 458.919 281.88C458.834 282.861 458.642 283.672 458.343 284.312C458.044 284.952 457.618 285.272 457.063 285.272C456.551 285.272 456.103 285.123 455.719 284.824C455.378 284.525 455.036 284.205 454.695 283.864C454.396 283.48 454.098 283.139 453.799 282.84C453.5 282.541 453.159 282.392 452.775 282.392C452.562 282.392 452.327 282.456 452.071 282.584C451.559 282.883 451.303 283.48 451.303 284.376C451.303 285.229 451.474 286.253 451.815 287.448C452.199 288.6 452.711 289.816 453.351 291.096C454.034 292.376 454.78 293.549 455.591 294.616C456.402 295.683 457.234 296.579 458.087 297.304C458.983 298.029 459.836 298.413 460.647 298.456C461.884 298.499 462.844 298.093 463.527 297.24C464.252 296.387 464.743 295.448 464.999 294.424C465.255 293.4 465.298 292.461 465.127 291.608C464.999 290.755 464.722 290.328 464.295 290.328C463.783 290.328 463.399 290.392 463.143 290.52C462.93 290.648 462.738 290.797 462.567 290.968C462.439 291.139 462.268 291.267 462.055 291.352C461.842 291.437 461.5 291.459 461.031 291.416C460.476 291.331 460.007 290.968 459.623 290.328C459.239 289.688 459.047 288.963 459.047 288.152C459.047 287.299 459.26 286.467 459.687 285.656C460.114 284.845 460.839 284.248 461.863 283.864C462.588 283.565 463.399 283.352 464.295 283.224C465.191 283.053 466.087 282.968 466.983 282.968C468.05 282.968 469.031 283.096 469.927 283.352C470.823 283.608 471.463 284.035 471.847 284.632C472.231 285.315 472.53 286.339 472.743 287.704C472.999 289.027 473.17 290.456 473.255 291.992C473.383 293.528 473.468 295.064 473.511 296.6C473.596 298.093 473.682 299.352 473.767 300.376C473.852 301.4 473.532 302.168 472.807 302.68C472.082 303.192 471.058 303.469 469.735 303.512C469.223 303.512 468.434 303.533 467.367 303.576C466.3 303.619 465.063 303.64 463.655 303.64C462.29 303.683 460.818 303.704 459.239 303.704C457.66 303.747 456.082 303.768 454.503 303.768C452.199 303.768 450.066 303.725 448.103 303.64C446.14 303.597 444.711 303.512 443.815 303.384C442.834 303.213 442.108 302.893 441.639 302.424C441.17 301.955 440.85 301.421 440.679 300.824C440.508 300.184 440.423 299.544 440.423 298.904C440.466 298.221 440.508 297.624 440.551 297.112C440.551 296.856 440.53 296.173 440.487 295.064C440.487 293.955 440.444 292.589 440.359 290.968C440.316 289.304 440.252 287.469 440.167 285.464C440.124 283.459 440.06 281.411 439.975 279.32C439.932 277.229 439.868 275.181 439.783 273.176C439.74 271.128 439.719 269.272 439.719 267.608C439.719 265.944 439.719 264.536 439.719 263.384C439.762 262.232 439.826 261.485 439.911 261.144Z" fill="black"/>
</svg>
